<svg width="360" height="145" viewBox="0 0 360 145" fill="none" xmlns="http://www.w3.org/2000/svg">
<g clip-path="url(#clip0_185_5330)">
<rect width="360" height="145" rx="22" fill="#219B6F"/>
<path d="M23.1562 38.3906C16.2188 38.3906 12.0781 34.0938 12.0781 26.7188C12.0781 19.3594 16.3125 15.0625 22.9688 15.0625C27.2344 15.0625 30.4531 16.8125 32.1406 20.0156C32.5156 20.7031 32.7188 21.4219 32.7188 22.1094C32.7188 23.5781 31.7188 24.5312 30.2188 24.5312C28.9531 24.5312 28.1719 24.0156 27.5469 22.7656C26.5312 20.6719 25.0156 19.6562 23.0312 19.6562C19.9062 19.6562 17.9219 22.3281 17.9219 26.7031C17.9219 31.125 19.8906 33.7969 23.0469 33.7969C25.125 33.7969 26.6406 32.7969 27.6094 30.6719C28.2031 29.4375 28.9062 28.9375 30.1094 28.9375C31.7344 28.9375 32.7969 29.9531 32.7969 31.4688C32.7969 32.0156 32.6719 32.5781 32.4375 33.125C31.0781 36.3281 27.4844 38.3906 23.1562 38.3906ZM40.5312 38.25C37.3594 38.25 34.8125 36.1562 34.8125 33.0781C34.8125 29.8906 37.2656 28.1094 41.6719 27.8438L45.6562 27.6094V26.6406C45.6562 25.2812 44.6875 24.5312 43.2344 24.5312C42.0469 24.5312 41.3906 24.875 40.3281 26.0312C39.6875 26.6719 38.9844 26.9844 38.1406 26.9844C36.8125 26.9844 35.875 26.1562 35.875 24.9688C35.875 24.5781 35.9219 24.2969 36.0469 23.9688C36.7656 21.8594 39.6094 20.5781 43.5156 20.5781C48.0625 20.5781 51.0781 22.9062 51.0781 26.3281V35.5781C51.0781 37.4688 49.9375 38.3594 48.3594 38.3594C46.8906 38.3594 45.8438 37.5938 45.6875 35.9688V35.5781H45.5781C44.6562 37.2969 42.5781 38.25 40.5312 38.25ZM42.5 34.4375C44.1875 34.4375 45.6562 33.4062 45.6562 31.8906V30.7188L42.5625 30.9219C41.1094 31.0312 40.2812 31.7031 40.2812 32.7031C40.2812 33.7812 41.1719 34.4375 42.5 34.4375ZM56.5156 38.3594C54.8125 38.3594 53.7344 37.3594 53.7344 35.4844V23.3906C53.7344 21.6094 54.8281 20.625 56.4375 20.625C57.9844 20.625 59.0469 21.6094 59.0469 23.4062V24.25H59.1562C59.5781 21.9531 60.8281 20.7344 62.5312 20.7344C63.1562 20.7344 63.6562 20.875 64.0156 21.1719C64.5625 21.5781 64.8438 22.2812 64.8438 23.2812C64.8438 24.1562 64.5781 24.8125 64.0625 25.2656C63.5469 25.7344 62.7656 25.9688 61.7344 26.0156C59.8281 26.0625 59.2812 26.9062 59.2812 28.8438V35.4844C59.2812 37.3594 58.2031 38.3594 56.5156 38.3594ZM69.1719 38.3594C67.5625 38.3594 66.4219 37.4375 66.4219 35.5156V17.9688C66.4219 16.0312 67.5781 15.0938 69.2031 15.0938C70.8125 15.0938 71.9688 16.0312 71.9688 17.9688V24H72.0781C72.9375 21.9531 74.7969 20.7344 77.2188 20.7344C81.5156 20.7344 84.0156 23.9375 84.0156 29.5C84.0156 35.0469 81.5312 38.25 77.2656 38.25C74.7812 38.25 72.9062 37.0469 72.0469 35.0781H71.9375V35.5156C71.9375 37.4375 70.7969 38.3594 69.1719 38.3594ZM75.1562 33.9219C77.1094 33.9219 78.3438 32.2031 78.3438 29.5C78.3438 26.7969 77.0938 25.0625 75.1562 25.0625C73.2188 25.0625 71.9531 26.8125 71.9375 29.5C71.9531 32.2188 73.2188 33.9219 75.1562 33.9219ZM94.3594 38.4062C89 38.4062 85.6562 35.1562 85.6562 29.4844C85.6562 23.9219 89.0781 20.5781 94.3594 20.5781C99.6719 20.5781 103.062 23.9062 103.062 29.4844C103.062 35.1719 99.7188 38.4062 94.3594 38.4062ZM94.3594 34.3438C96.25 34.3438 97.4531 32.6094 97.4531 29.5C97.4531 26.4375 96.25 24.6406 94.3594 24.6406C92.4844 24.6406 91.2812 26.4375 91.2812 29.5C91.2812 32.6094 92.4531 34.3438 94.3594 34.3438ZM107.984 38.3594C106.359 38.3594 105.203 37.4219 105.203 35.4844V23.4062C105.203 21.6562 106.188 20.625 107.891 20.625C109.594 20.625 110.703 21.6562 110.703 23.4219V24.0625H110.812C111.703 21.8125 113.359 20.6562 115.969 20.6562C119.766 20.6562 121.875 23.0312 121.875 27.0781V35.4844C121.875 37.4219 120.734 38.3594 119.109 38.3594C117.484 38.3594 116.344 37.4219 116.344 35.4844V28.2656C116.344 26.3281 115.422 25.1719 113.609 25.1719C111.844 25.1719 110.75 26.5 110.75 28.375V35.4844C110.75 37.4219 109.594 38.3594 107.984 38.3594ZM133.953 38.3438C132.141 38.3438 131.078 37.2656 131.078 35.3594V18.4531C131.078 16.5469 132.141 15.4531 133.953 15.4531H144.172C145.719 15.4531 146.719 16.2969 146.719 17.7656C146.719 19.2344 145.688 20.0781 144.172 20.0781H136.812V25.2031H143.438C144.891 25.2031 145.828 26.0156 145.828 27.4062C145.828 28.7812 144.922 29.5938 143.438 29.5938H136.812V35.3594C136.812 37.2656 135.766 38.3438 133.953 38.3438ZM156.359 38.4062C151 38.4062 147.656 35.1562 147.656 29.4844C147.656 23.9219 151.078 20.5781 156.359 20.5781C161.672 20.5781 165.062 23.9062 165.062 29.4844C165.062 35.1719 161.719 38.4062 156.359 38.4062ZM156.359 34.3438C158.25 34.3438 159.453 32.6094 159.453 29.5C159.453 26.4375 158.25 24.6406 156.359 24.6406C154.484 24.6406 153.281 26.4375 153.281 29.5C153.281 32.6094 154.453 34.3438 156.359 34.3438ZM175.391 38.4062C170.031 38.4062 166.688 35.1562 166.688 29.4844C166.688 23.9219 170.109 20.5781 175.391 20.5781C180.703 20.5781 184.094 23.9062 184.094 29.4844C184.094 35.1719 180.75 38.4062 175.391 38.4062ZM175.391 34.3438C177.281 34.3438 178.484 32.6094 178.484 29.5C178.484 26.4375 177.281 24.6406 175.391 24.6406C173.516 24.6406 172.312 26.4375 172.312 29.5C172.312 32.6094 173.484 34.3438 175.391 34.3438ZM187.625 33.4375V25.0781H187.016C185.781 25.0781 184.969 24.2656 184.969 23.0312C184.969 21.7812 185.781 20.9844 187.016 20.9844H187.625V19.625C187.625 17.8281 188.641 16.75 190.406 16.75C192.156 16.75 193.172 17.8281 193.172 19.625V20.9844H194.516C195.75 20.9844 196.562 21.7969 196.562 23.0312C196.562 24.2656 195.75 25.0781 194.516 25.0781H193.172V32.2188C193.172 33.2812 193.531 33.7031 194.312 33.7812L194.656 33.8281C195.891 33.9688 196.609 34.5156 196.609 35.7969C196.609 37.4062 194.859 38.2188 192.719 38.2188H192.578C189.297 38.2188 187.625 36.5938 187.625 33.4375ZM201.297 44.1094C199.672 44.1094 198.516 43.1719 198.516 41.2344V23.4688C198.516 21.5469 199.656 20.625 201.281 20.625C202.891 20.625 204.031 21.5469 204.031 23.4844V24.0156H204.141C205 21.9688 206.844 20.7344 209.297 20.7344C213.594 20.7344 216.094 23.9375 216.094 29.5C216.094 35.0469 213.609 38.25 209.375 38.25C206.875 38.25 205 37.0625 204.172 35.0938H204.062V41.2344C204.062 43.1719 202.906 44.1094 201.297 44.1094ZM207.234 33.9219C209.203 33.9219 210.438 32.2031 210.438 29.5C210.438 26.7969 209.188 25.0625 207.234 25.0625C205.297 25.0625 204.047 26.8125 204.031 29.5C204.047 32.2031 205.281 33.9219 207.234 33.9219ZM221.047 38.3594C219.344 38.3594 218.266 37.3594 218.266 35.4844V23.3906C218.266 21.6094 219.359 20.625 220.969 20.625C222.516 20.625 223.578 21.6094 223.578 23.4062V24.25H223.688C224.109 21.9531 225.359 20.7344 227.062 20.7344C227.688 20.7344 228.188 20.875 228.547 21.1719C229.094 21.5781 229.375 22.2812 229.375 23.2812C229.375 24.1562 229.109 24.8125 228.594 25.2656C228.078 25.7344 227.297 25.9688 226.266 26.0156C224.359 26.0625 223.812 26.9062 223.812 28.8438V35.4844C223.812 37.3594 222.734 38.3594 221.047 38.3594ZM233.672 19.25C232.062 19.25 230.828 18.0781 230.828 16.5469C230.828 15 232.062 13.8281 233.672 13.8281C235.281 13.8281 236.5 15 236.5 16.5469C236.5 18.0781 235.281 19.25 233.672 19.25ZM233.672 38.3594C231.922 38.3594 230.906 37.3125 230.906 35.4844V23.5C230.906 21.6875 231.922 20.625 233.672 20.625C235.406 20.625 236.438 21.6875 236.438 23.5V35.4844C236.438 37.3125 235.406 38.3594 233.672 38.3594ZM241.922 38.3594C240.297 38.3594 239.141 37.4219 239.141 35.4844V23.4062C239.141 21.6562 240.125 20.625 241.828 20.625C243.531 20.625 244.641 21.6562 244.641 23.4219V24.0625H244.75C245.641 21.8125 247.297 20.6562 249.906 20.6562C253.703 20.6562 255.812 23.0312 255.812 27.0781V35.4844C255.812 37.4219 254.672 38.3594 253.047 38.3594C251.422 38.3594 250.281 37.4219 250.281 35.4844V28.2656C250.281 26.3281 249.359 25.1719 247.547 25.1719C245.781 25.1719 244.688 26.5 244.688 28.375V35.4844C244.688 37.4219 243.531 38.3594 241.922 38.3594ZM259.812 33.4375V25.0781H259.203C257.969 25.0781 257.156 24.2656 257.156 23.0312C257.156 21.7812 257.969 20.9844 259.203 20.9844H259.812V19.625C259.812 17.8281 260.828 16.75 262.594 16.75C264.344 16.75 265.359 17.8281 265.359 19.625V20.9844H266.703C267.938 20.9844 268.75 21.7969 268.75 23.0312C268.75 24.2656 267.938 25.0781 266.703 25.0781H265.359V32.2188C265.359 33.2812 265.719 33.7031 266.5 33.7812L266.844 33.8281C268.078 33.9688 268.797 34.5156 268.797 35.7969C268.797 37.4062 267.047 38.2188 264.906 38.2188H264.766C261.484 38.2188 259.812 36.5938 259.812 33.4375ZM23.1562 68.3906C16.2188 68.3906 12.0781 64.0938 12.0781 56.7188C12.0781 49.3594 16.3125 45.0625 22.9688 45.0625C27.2344 45.0625 30.4531 46.8125 32.1406 50.0156C32.5156 50.7031 32.7188 51.4219 32.7188 52.1094C32.7188 53.5781 31.7188 54.5312 30.2188 54.5312C28.9531 54.5312 28.1719 54.0156 27.5469 52.7656C26.5312 50.6719 25.0156 49.6562 23.0312 49.6562C19.9062 49.6562 17.9219 52.3281 17.9219 56.7031C17.9219 61.125 19.8906 63.7969 23.0469 63.7969C25.125 63.7969 26.6406 62.7969 27.6094 60.6719C28.2031 59.4375 28.9062 58.9375 30.1094 58.9375C31.7344 58.9375 32.7969 59.9531 32.7969 61.4688C32.7969 62.0156 32.6719 62.5781 32.4375 63.125C31.0781 66.3281 27.4844 68.3906 23.1562 68.3906ZM40.5312 68.25C37.3594 68.25 34.8125 66.1562 34.8125 63.0781C34.8125 59.8906 37.2656 58.1094 41.6719 57.8438L45.6562 57.6094V56.6406C45.6562 55.2812 44.6875 54.5312 43.2344 54.5312C42.0469 54.5312 41.3906 54.875 40.3281 56.0312C39.6875 56.6719 38.9844 56.9844 38.1406 56.9844C36.8125 56.9844 35.875 56.1562 35.875 54.9688C35.875 54.5781 35.9219 54.2969 36.0469 53.9688C36.7656 51.8594 39.6094 50.5781 43.5156 50.5781C48.0625 50.5781 51.0781 52.9062 51.0781 56.3281V65.5781C51.0781 67.4688 49.9375 68.3594 48.3594 68.3594C46.8906 68.3594 45.8438 67.5938 45.6875 65.9688V65.5781H45.5781C44.6562 67.2969 42.5781 68.25 40.5312 68.25ZM42.5 64.4375C44.1875 64.4375 45.6562 63.4062 45.6562 61.8906V60.7188L42.5625 60.9219C41.1094 61.0312 40.2812 61.7031 40.2812 62.7031C40.2812 63.7812 41.1719 64.4375 42.5 64.4375ZM56.6094 68.3594C54.9844 68.3594 53.8281 67.4219 53.8281 65.4844V47.9688C53.8281 46.0312 54.9844 45.0938 56.6094 45.0938C58.2188 45.0938 59.375 46.0312 59.375 47.9688V65.4844C59.375 67.4219 58.2188 68.3594 56.6094 68.3594ZM70.2656 68.4062C64.9375 68.4062 61.625 65.0469 61.625 59.4844C61.625 53.9844 64.9375 50.5781 70.2344 50.5781C73.75 50.5781 76.625 52.1562 77.6719 54.6094C77.8906 55.0781 78.0156 55.5938 78.0156 56.0156C78.0156 57.3438 76.9062 58.1094 75.6406 58.1094C74.5781 58.1094 73.9062 57.6875 73.375 56.7969C72.5781 55.4062 71.6875 54.7969 70.4375 54.7969C68.4062 54.7969 67.2344 56.4688 67.2344 59.4844C67.2344 62.5312 68.375 64.2031 70.4062 64.2031C71.8125 64.2031 72.6719 63.4531 73.3125 62.4531C74.0312 61.4062 74.6406 60.9219 75.8125 60.9219C77.0469 60.9219 78.125 61.7188 78.125 63.0938C78.125 63.5156 78.0156 63.9844 77.7344 64.5312C76.6094 66.8281 73.6094 68.4062 70.2656 68.4062ZM86.4844 68.3281C82.8281 68.3281 80.25 65.9375 80.25 61.9219V53.5C80.25 51.5625 81.4062 50.625 83.0312 50.625C84.6406 50.625 85.7969 51.5625 85.7969 53.5V60.7188C85.7969 62.7344 86.8438 63.8125 88.5781 63.8125C90.2969 63.8125 91.3906 62.5312 91.3906 60.6094V53.5C91.3906 51.5625 92.5312 50.625 94.1562 50.625C95.7812 50.625 96.9219 51.5625 96.9219 53.5V65.5469C96.9219 67.4531 95.8281 68.3594 94.2344 68.3594C92.6406 68.3594 91.5469 67.4531 91.5469 65.5625V64.7812H91.4375C90.6719 67.0156 89.0469 68.3281 86.4844 68.3281ZM102.484 68.3594C100.859 68.3594 99.7031 67.4219 99.7031 65.4844V47.9688C99.7031 46.0312 100.859 45.0938 102.484 45.0938C104.094 45.0938 105.25 46.0312 105.25 47.9688V65.4844C105.25 67.4219 104.094 68.3594 102.484 68.3594ZM113.094 68.25C109.922 68.25 107.375 66.1562 107.375 63.0781C107.375 59.8906 109.828 58.1094 114.234 57.8438L118.219 57.6094V56.6406C118.219 55.2812 117.25 54.5312 115.797 54.5312C114.609 54.5312 113.953 54.875 112.891 56.0312C112.25 56.6719 111.547 56.9844 110.703 56.9844C109.375 56.9844 108.438 56.1562 108.438 54.9688C108.438 54.5781 108.484 54.2969 108.609 53.9688C109.328 51.8594 112.172 50.5781 116.078 50.5781C120.625 50.5781 123.641 52.9062 123.641 56.3281V65.5781C123.641 67.4688 122.5 68.3594 120.922 68.3594C119.453 68.3594 118.406 67.5938 118.25 65.9688V65.5781H118.141C117.219 67.2969 115.141 68.25 113.094 68.25ZM115.062 64.4375C116.75 64.4375 118.219 63.4062 118.219 61.8906V60.7188L115.125 60.9219C113.672 61.0312 112.844 61.7031 112.844 62.7031C112.844 63.7812 113.734 64.4375 115.062 64.4375ZM127.688 63.4375V55.0781H127.078C125.844 55.0781 125.031 54.2656 125.031 53.0312C125.031 51.7812 125.844 50.9844 127.078 50.9844H127.688V49.625C127.688 47.8281 128.703 46.75 130.469 46.75C132.219 46.75 133.234 47.8281 133.234 49.625V50.9844H134.578C135.812 50.9844 136.625 51.7969 136.625 53.0312C136.625 54.2656 135.812 55.0781 134.578 55.0781H133.234V62.2188C133.234 63.2812 133.594 63.7031 134.375 63.7812L134.719 63.8281C135.953 63.9688 136.672 64.5156 136.672 65.7969C136.672 67.4062 134.922 68.2188 132.781 68.2188H132.641C129.359 68.2188 127.688 66.5938 127.688 63.4375ZM146.641 68.4062C141.281 68.4062 137.938 65.1562 137.938 59.4844C137.938 53.9219 141.359 50.5781 146.641 50.5781C151.953 50.5781 155.344 53.9062 155.344 59.4844C155.344 65.1719 152 68.4062 146.641 68.4062ZM146.641 64.3438C148.531 64.3438 149.734 62.6094 149.734 59.5C149.734 56.4375 148.531 54.6406 146.641 54.6406C144.766 54.6406 143.562 56.4375 143.562 59.5C143.562 62.6094 144.734 64.3438 146.641 64.3438ZM160.266 68.3594C158.562 68.3594 157.484 67.3594 157.484 65.4844V53.3906C157.484 51.6094 158.578 50.625 160.188 50.625C161.734 50.625 162.797 51.6094 162.797 53.4062V54.25H162.906C163.328 51.9531 164.578 50.7344 166.281 50.7344C166.906 50.7344 167.406 50.875 167.766 51.1719C168.312 51.5781 168.594 52.2812 168.594 53.2812C168.594 54.1562 168.328 54.8125 167.812 55.2656C167.297 55.7344 166.516 55.9688 165.484 56.0156C163.578 56.0625 163.031 56.9062 163.031 58.8438V65.4844C163.031 67.3594 161.953 68.3594 160.266 68.3594Z" fill="white"/>
<g filter="url(#filter0_d_185_5330)">
<path d="M21.603 96.249C20.646 96.249 19.8184 96.0244 19.1201 95.5752C18.4219 95.126 17.8823 94.4888 17.5015 93.6636C17.1255 92.8384 16.9375 91.8594 16.9375 90.7266V90.7119C16.9375 89.5742 17.1255 88.5928 17.5015 87.7676C17.8823 86.9424 18.4194 86.3052 19.1128 85.856C19.811 85.4067 20.6387 85.1821 21.5957 85.1821C22.3379 85.1821 23.0117 85.3286 23.6172 85.6216C24.2275 85.9097 24.7305 86.3125 25.126 86.8301C25.5215 87.3428 25.7705 87.936 25.873 88.6099L25.8657 88.6245H24.54L24.5327 88.6099C24.4155 88.1558 24.2178 87.7651 23.9395 87.438C23.6611 87.106 23.3218 86.8496 22.9214 86.6689C22.5259 86.4883 22.084 86.3979 21.5957 86.3979C20.9219 86.3979 20.3359 86.5737 19.8379 86.9253C19.3447 87.2769 18.9639 87.7749 18.6953 88.4194C18.4268 89.064 18.2925 89.8281 18.2925 90.7119V90.7266C18.2925 91.6055 18.4268 92.3672 18.6953 93.0117C18.9639 93.6562 19.3447 94.1543 19.8379 94.5059C20.3359 94.8574 20.9243 95.0332 21.603 95.0332C22.0962 95.0332 22.543 94.9551 22.9434 94.7988C23.3438 94.6377 23.6807 94.4106 23.9541 94.1177C24.2275 93.8198 24.418 93.4683 24.5254 93.063L24.54 93.0483H25.873V93.063C25.7559 93.7075 25.502 94.269 25.1113 94.7476C24.7207 95.2212 24.2251 95.5898 23.6245 95.8535C23.0288 96.1172 22.355 96.249 21.603 96.249ZM30.0918 96.1392C29.5938 96.1392 29.1445 96.0439 28.7441 95.8535C28.3486 95.6631 28.0337 95.3921 27.7993 95.0405C27.5698 94.689 27.4551 94.2739 27.4551 93.7954V93.7808C27.4551 93.312 27.5674 92.9116 27.792 92.5796C28.0166 92.2427 28.3438 91.979 28.7734 91.7886C29.2031 91.5981 29.7231 91.4858 30.3335 91.4517L33.2339 91.2759V92.2939L30.4873 92.4697C29.8867 92.5039 29.4473 92.6284 29.1689 92.8433C28.8955 93.0581 28.7588 93.3608 28.7588 93.7515V93.7661C28.7588 94.1665 28.9102 94.479 29.2129 94.7036C29.5156 94.9233 29.8965 95.0332 30.3555 95.0332C30.79 95.0332 31.1758 94.9478 31.5127 94.7769C31.8496 94.6011 32.1133 94.3643 32.3037 94.0664C32.499 93.7686 32.5967 93.4316 32.5967 93.0557V90.5947C32.5967 90.1064 32.4478 89.7354 32.1499 89.4814C31.8569 89.2227 31.415 89.0933 30.8242 89.0933C30.3506 89.0933 29.9624 89.1787 29.6597 89.3496C29.3569 89.5156 29.1543 89.7524 29.0518 90.0601L29.0444 90.082H27.77L27.7773 90.0381C27.8457 89.623 28.0166 89.2617 28.29 88.9541C28.5684 88.6416 28.9272 88.3999 29.3667 88.229C29.8062 88.0532 30.3066 87.9653 30.8682 87.9653C31.5127 87.9653 32.0571 88.0703 32.5015 88.2803C32.9507 88.4902 33.29 88.793 33.5195 89.1885C33.7539 89.5791 33.8711 90.0479 33.8711 90.5947V96H32.5967V94.8354H32.4795C32.3135 95.1138 32.1108 95.3506 31.8716 95.5459C31.6372 95.7412 31.3711 95.8901 31.0732 95.9927C30.7754 96.0903 30.4482 96.1392 30.0918 96.1392ZM36.2734 96V84.9697H37.5479V96H36.2734ZM43.2241 96.1392C42.4868 96.1392 41.8472 95.9707 41.3052 95.6338C40.7632 95.2969 40.3433 94.8208 40.0454 94.2056C39.7476 93.5903 39.5986 92.8652 39.5986 92.0303V92.0156C39.5986 91.1953 39.7451 90.4824 40.0381 89.877C40.3359 89.2715 40.7559 88.8027 41.2979 88.4707C41.8398 88.1338 42.4795 87.9653 43.2168 87.9653C43.8564 87.9653 44.4082 88.0776 44.8721 88.3022C45.3359 88.5269 45.707 88.8296 45.9854 89.2104C46.2637 89.5864 46.4419 90.0088 46.52 90.4775L46.5273 90.5215H45.2603L45.2529 90.4995C45.1553 90.1089 44.9331 89.7769 44.5864 89.5034C44.2397 89.23 43.7832 89.0933 43.2168 89.0933C42.7432 89.0933 42.333 89.2129 41.9863 89.4521C41.6396 89.6914 41.3711 90.0308 41.1807 90.4702C40.9951 90.9048 40.9023 91.4199 40.9023 92.0156V92.0303C40.9023 92.6357 40.9976 93.1631 41.188 93.6123C41.3784 94.0566 41.647 94.4009 41.9937 94.645C42.3403 94.8892 42.748 95.0112 43.2168 95.0112C43.749 95.0112 44.1836 94.8965 44.5205 94.667C44.8574 94.4375 45.0991 94.103 45.2456 93.6636L45.2603 93.6196L46.52 93.6123L46.5054 93.6929C46.3979 94.1665 46.2075 94.5889 45.9341 94.96C45.6606 95.3262 45.2993 95.6143 44.8501 95.8242C44.4009 96.0342 43.8589 96.1392 43.2241 96.1392ZM51.0317 96.1392C50.436 96.1392 49.9355 96.0269 49.5303 95.8022C49.125 95.5728 48.8198 95.2407 48.6147 94.8062C48.4146 94.3667 48.3145 93.8369 48.3145 93.2168V88.1045H49.5889V92.9092C49.5889 93.6172 49.7256 94.1445 49.999 94.4912C50.2773 94.8379 50.7314 95.0112 51.3613 95.0112C51.708 95.0112 52.0132 94.96 52.2769 94.8574C52.5454 94.7549 52.77 94.6084 52.9507 94.418C53.1313 94.2227 53.2656 93.9883 53.3535 93.7148C53.4463 93.4365 53.4927 93.124 53.4927 92.7773V88.1045H54.7671V96H53.4927V94.8208H53.3755C53.2485 95.0991 53.0752 95.3384 52.8555 95.5386C52.6357 95.7339 52.3721 95.8828 52.0645 95.9854C51.7617 96.0879 51.4175 96.1392 51.0317 96.1392ZM57.2207 96V84.9697H58.4951V96H57.2207ZM63.1094 96.1392C62.6113 96.1392 62.1621 96.0439 61.7617 95.8535C61.3662 95.6631 61.0513 95.3921 60.8169 95.0405C60.5874 94.689 60.4727 94.2739 60.4727 93.7954V93.7808C60.4727 93.312 60.585 92.9116 60.8096 92.5796C61.0342 92.2427 61.3613 91.979 61.791 91.7886C62.2207 91.5981 62.7407 91.4858 63.3511 91.4517L66.2515 91.2759V92.2939L63.5049 92.4697C62.9043 92.5039 62.4648 92.6284 62.1865 92.8433C61.9131 93.0581 61.7764 93.3608 61.7764 93.7515V93.7661C61.7764 94.1665 61.9277 94.479 62.2305 94.7036C62.5332 94.9233 62.9141 95.0332 63.373 95.0332C63.8076 95.0332 64.1934 94.9478 64.5303 94.7769C64.8672 94.6011 65.1309 94.3643 65.3213 94.0664C65.5166 93.7686 65.6143 93.4316 65.6143 93.0557V90.5947C65.6143 90.1064 65.4653 89.7354 65.1675 89.4814C64.8745 89.2227 64.4326 89.0933 63.8418 89.0933C63.3682 89.0933 62.98 89.1787 62.6772 89.3496C62.3745 89.5156 62.1719 89.7524 62.0693 90.0601L62.062 90.082H60.7876L60.7949 90.0381C60.8633 89.623 61.0342 89.2617 61.3076 88.9541C61.5859 88.6416 61.9448 88.3999 62.3843 88.229C62.8237 88.0532 63.3242 87.9653 63.8857 87.9653C64.5303 87.9653 65.0747 88.0703 65.519 88.2803C65.9683 88.4902 66.3076 88.793 66.5371 89.1885C66.7715 89.5791 66.8887 90.0479 66.8887 90.5947V96H65.6143V94.8354H65.4971C65.3311 95.1138 65.1284 95.3506 64.8892 95.5459C64.6548 95.7412 64.3887 95.8901 64.0908 95.9927C63.793 96.0903 63.4658 96.1392 63.1094 96.1392ZM72.0229 96.0586C71.2124 96.0586 70.624 95.895 70.2578 95.5679C69.8965 95.2407 69.7158 94.7012 69.7158 93.9492V89.1592H68.4707V88.1045H69.7158V86.061H71.0342V88.1045H72.7627V89.1592H71.0342V93.627C71.0342 94.0908 71.1221 94.4253 71.2979 94.6304C71.4736 94.8306 71.7666 94.9307 72.1768 94.9307C72.2891 94.9307 72.3843 94.9282 72.4624 94.9233C72.5454 94.9185 72.6455 94.9111 72.7627 94.9014V95.9854C72.6406 96.0049 72.5186 96.022 72.3965 96.0366C72.2744 96.0513 72.1499 96.0586 72.0229 96.0586ZM77.7871 96.1392C77.0352 96.1392 76.3882 95.9731 75.8462 95.6411C75.3091 95.3091 74.894 94.8403 74.6011 94.2349C74.313 93.6245 74.1689 92.9067 74.1689 92.0815V92.0742C74.1689 91.2588 74.313 90.5435 74.6011 89.9282C74.894 89.313 75.3066 88.832 75.8389 88.4854C76.3711 88.1387 76.9937 87.9653 77.7065 87.9653C78.4243 87.9653 79.0396 88.1313 79.5522 88.4634C80.0698 88.7954 80.4653 89.2593 80.7388 89.855C81.0171 90.4458 81.1562 91.1343 81.1562 91.9204V92.4185H74.8281V91.4004H80.5044L79.8745 92.3306V91.8252C79.8745 91.2051 79.7817 90.6948 79.5962 90.2944C79.4106 89.894 79.1543 89.5962 78.8271 89.4009C78.5 89.2007 78.124 89.1006 77.6992 89.1006C77.2744 89.1006 76.8936 89.2056 76.5566 89.4155C76.2246 89.6206 75.9609 89.9258 75.7656 90.3311C75.5703 90.7363 75.4727 91.2344 75.4727 91.8252V92.3306C75.4727 92.8921 75.5679 93.373 75.7583 93.7734C75.9487 94.1689 76.2197 94.4741 76.5713 94.689C76.9229 94.8989 77.3379 95.0039 77.8164 95.0039C78.1729 95.0039 78.4829 94.9551 78.7466 94.8574C79.0103 94.7598 79.2275 94.6353 79.3984 94.4839C79.5693 94.3325 79.689 94.1787 79.7573 94.0225L79.7866 93.9565H81.061L81.0464 94.0151C80.978 94.2837 80.856 94.5449 80.6802 94.7988C80.5093 95.0479 80.2871 95.2749 80.0137 95.48C79.7402 95.6802 79.4155 95.8413 79.0396 95.9634C78.6685 96.0806 78.251 96.1392 77.7871 96.1392ZM88.0264 98.7686C87.9434 98.7686 87.8506 98.7637 87.748 98.7539C87.6455 98.749 87.5503 98.7393 87.4624 98.7246V97.6772C87.5405 97.6919 87.626 97.7017 87.7188 97.7065C87.8115 97.7114 87.9019 97.7139 87.9897 97.7139C88.3511 97.7139 88.6465 97.6211 88.876 97.4355C89.1104 97.25 89.2983 96.9302 89.4399 96.4761L89.5864 96.0073L86.6641 88.1045H88.0264L90.458 95.3994L89.9526 94.6011H90.5532L90.0479 95.3994L92.4722 88.1045H93.8125L90.729 96.4834C90.5142 97.0742 90.2871 97.5356 90.0479 97.8677C89.8086 98.1997 89.5278 98.4316 89.2056 98.5635C88.8882 98.7002 88.4951 98.7686 88.0264 98.7686ZM98.4487 96.1392C97.7017 96.1392 97.0547 95.9756 96.5078 95.6484C95.9658 95.3164 95.5459 94.8452 95.248 94.2349C94.9551 93.6245 94.8086 92.8994 94.8086 92.0596V92.0449C94.8086 91.2002 94.9551 90.4727 95.248 89.8623C95.5459 89.252 95.9658 88.7832 96.5078 88.4561C97.0547 88.1289 97.7017 87.9653 98.4487 87.9653C99.2007 87.9653 99.8477 88.1289 100.39 88.4561C100.932 88.7832 101.349 89.252 101.642 89.8623C101.94 90.4727 102.089 91.2002 102.089 92.0449V92.0596C102.089 92.8994 101.94 93.6245 101.642 94.2349C101.349 94.8452 100.932 95.3164 100.39 95.6484C99.8477 95.9756 99.2007 96.1392 98.4487 96.1392ZM98.4487 95.0112C98.9468 95.0112 99.3691 94.894 99.7158 94.6597C100.062 94.4253 100.326 94.0884 100.507 93.6489C100.692 93.2095 100.785 92.6797 100.785 92.0596V92.0449C100.785 91.4199 100.692 90.8877 100.507 90.4482C100.326 90.0088 100.062 89.6743 99.7158 89.4448C99.3691 89.2104 98.9468 89.0933 98.4487 89.0933C97.9507 89.0933 97.5283 89.2104 97.1816 89.4448C96.835 89.6743 96.5688 90.0088 96.3833 90.4482C96.2026 90.8877 96.1123 91.4199 96.1123 92.0449V92.0596C96.1123 92.6797 96.2026 93.2095 96.3833 93.6489C96.5688 94.0884 96.835 94.4253 97.1816 94.6597C97.5283 94.894 97.9507 95.0112 98.4487 95.0112ZM106.71 96.1392C106.115 96.1392 105.614 96.0269 105.209 95.8022C104.804 95.5728 104.499 95.2407 104.293 94.8062C104.093 94.3667 103.993 93.8369 103.993 93.2168V88.1045H105.268V92.9092C105.268 93.6172 105.404 94.1445 105.678 94.4912C105.956 94.8379 106.41 95.0112 107.04 95.0112C107.387 95.0112 107.692 94.96 107.956 94.8574C108.224 94.7549 108.449 94.6084 108.629 94.418C108.81 94.2227 108.944 93.9883 109.032 93.7148C109.125 93.4365 109.171 93.124 109.171 92.7773V88.1045H110.446V96H109.171V94.8208H109.054C108.927 95.0991 108.754 95.3384 108.534 95.5386C108.314 95.7339 108.051 95.8828 107.743 95.9854C107.44 96.0879 107.096 96.1392 106.71 96.1392ZM112.826 96V88.1045H114.101V89.2764H114.218C114.369 88.8613 114.625 88.5391 114.987 88.3096C115.348 88.0801 115.795 87.9653 116.327 87.9653C116.449 87.9653 116.569 87.9727 116.686 87.9873C116.808 87.9971 116.901 88.0068 116.964 88.0166V89.2544C116.833 89.23 116.703 89.2129 116.576 89.2031C116.454 89.1885 116.322 89.1812 116.181 89.1812C115.775 89.1812 115.417 89.2617 115.104 89.4229C114.792 89.584 114.545 89.8086 114.364 90.0967C114.188 90.3848 114.101 90.7217 114.101 91.1074V96H112.826ZM125.988 96.1392C125.25 96.1392 124.611 95.9707 124.069 95.6338C123.527 95.2969 123.107 94.8208 122.809 94.2056C122.511 93.5903 122.362 92.8652 122.362 92.0303V92.0156C122.362 91.1953 122.509 90.4824 122.802 89.877C123.1 89.2715 123.52 88.8027 124.062 88.4707C124.604 88.1338 125.243 87.9653 125.98 87.9653C126.62 87.9653 127.172 88.0776 127.636 88.3022C128.1 88.5269 128.471 88.8296 128.749 89.2104C129.027 89.5864 129.206 90.0088 129.284 90.4775L129.291 90.5215H128.024L128.017 90.4995C127.919 90.1089 127.697 89.7769 127.35 89.5034C127.003 89.23 126.547 89.0933 125.98 89.0933C125.507 89.0933 125.097 89.2129 124.75 89.4521C124.403 89.6914 124.135 90.0308 123.944 90.4702C123.759 90.9048 123.666 91.4199 123.666 92.0156V92.0303C123.666 92.6357 123.761 93.1631 123.952 93.6123C124.142 94.0566 124.411 94.4009 124.757 94.645C125.104 94.8892 125.512 95.0112 125.98 95.0112C126.513 95.0112 126.947 94.8965 127.284 94.667C127.621 94.4375 127.863 94.103 128.009 93.6636L128.024 93.6196L129.284 93.6123L129.269 93.6929C129.162 94.1665 128.971 94.5889 128.698 94.96C128.424 95.3262 128.063 95.6143 127.614 95.8242C127.165 96.0342 126.623 96.1392 125.988 96.1392ZM133.319 96.1392C132.821 96.1392 132.372 96.0439 131.972 95.8535C131.576 95.6631 131.261 95.3921 131.027 95.0405C130.797 94.689 130.683 94.2739 130.683 93.7954V93.7808C130.683 93.312 130.795 92.9116 131.02 92.5796C131.244 92.2427 131.571 91.979 132.001 91.7886C132.431 91.5981 132.951 91.4858 133.561 91.4517L136.461 91.2759V92.2939L133.715 92.4697C133.114 92.5039 132.675 92.6284 132.396 92.8433C132.123 93.0581 131.986 93.3608 131.986 93.7515V93.7661C131.986 94.1665 132.138 94.479 132.44 94.7036C132.743 94.9233 133.124 95.0332 133.583 95.0332C134.018 95.0332 134.403 94.9478 134.74 94.7769C135.077 94.6011 135.341 94.3643 135.531 94.0664C135.727 93.7686 135.824 93.4316 135.824 93.0557V90.5947C135.824 90.1064 135.675 89.7354 135.377 89.4814C135.084 89.2227 134.643 89.0933 134.052 89.0933C133.578 89.0933 133.19 89.1787 132.887 89.3496C132.584 89.5156 132.382 89.7524 132.279 90.0601L132.272 90.082H130.998L131.005 90.0381C131.073 89.623 131.244 89.2617 131.518 88.9541C131.796 88.6416 132.155 88.3999 132.594 88.229C133.034 88.0532 133.534 87.9653 134.096 87.9653C134.74 87.9653 135.285 88.0703 135.729 88.2803C136.178 88.4902 136.518 88.793 136.747 89.1885C136.981 89.5791 137.099 90.0479 137.099 90.5947V96H135.824V94.8354H135.707C135.541 95.1138 135.338 95.3506 135.099 95.5459C134.865 95.7412 134.599 95.8901 134.301 95.9927C134.003 96.0903 133.676 96.1392 133.319 96.1392ZM139.428 96V88.1045H140.702V89.2764H140.819C140.971 88.8613 141.227 88.5391 141.588 88.3096C141.95 88.0801 142.396 87.9653 142.929 87.9653C143.051 87.9653 143.17 87.9727 143.288 87.9873C143.41 87.9971 143.502 88.0068 143.566 88.0166V89.2544C143.434 89.23 143.305 89.2129 143.178 89.2031C143.056 89.1885 142.924 89.1812 142.782 89.1812C142.377 89.1812 142.018 89.2617 141.706 89.4229C141.393 89.584 141.146 89.8086 140.966 90.0967C140.79 90.3848 140.702 90.7217 140.702 91.1074V96H139.428ZM149.066 96.1392C148.7 96.1392 148.361 96.083 148.048 95.9707C147.736 95.8584 147.458 95.6997 147.213 95.4946C146.969 95.2847 146.767 95.0332 146.605 94.7402H146.488V96H145.214V84.9697H146.488V89.3496H146.605C146.752 89.0664 146.947 88.8223 147.191 88.6172C147.44 88.4121 147.724 88.2534 148.041 88.1411C148.363 88.0239 148.705 87.9653 149.066 87.9653C149.735 87.9653 150.316 88.1338 150.81 88.4707C151.308 88.8076 151.693 89.2812 151.967 89.8916C152.24 90.502 152.377 91.2197 152.377 92.0449V92.0596C152.377 92.8799 152.24 93.5977 151.967 94.2129C151.693 94.8232 151.308 95.2969 150.81 95.6338C150.316 95.9707 149.735 96.1392 149.066 96.1392ZM148.773 95.0112C149.257 95.0112 149.669 94.894 150.011 94.6597C150.353 94.4204 150.614 94.0811 150.795 93.6416C150.98 93.1973 151.073 92.6699 151.073 92.0596V92.0449C151.073 91.4297 150.98 90.9023 150.795 90.4629C150.614 90.0234 150.353 89.6865 150.011 89.4521C149.669 89.2129 149.257 89.0933 148.773 89.0933C148.295 89.0933 147.882 89.2129 147.536 89.4521C147.189 89.6914 146.923 90.0308 146.737 90.4702C146.552 90.9097 146.459 91.4346 146.459 92.0449V92.0596C146.459 92.665 146.552 93.1899 146.737 93.6343C146.923 94.0737 147.189 94.4131 147.536 94.6523C147.882 94.8916 148.295 95.0112 148.773 95.0112ZM157.599 96.1392C156.852 96.1392 156.205 95.9756 155.658 95.6484C155.116 95.3164 154.696 94.8452 154.398 94.2349C154.105 93.6245 153.959 92.8994 153.959 92.0596V92.0449C153.959 91.2002 154.105 90.4727 154.398 89.8623C154.696 89.252 155.116 88.7832 155.658 88.4561C156.205 88.1289 156.852 87.9653 157.599 87.9653C158.351 87.9653 158.998 88.1289 159.54 88.4561C160.082 88.7832 160.5 89.252 160.792 89.8623C161.09 90.4727 161.239 91.2002 161.239 92.0449V92.0596C161.239 92.8994 161.09 93.6245 160.792 94.2349C160.5 94.8452 160.082 95.3164 159.54 95.6484C158.998 95.9756 158.351 96.1392 157.599 96.1392ZM157.599 95.0112C158.097 95.0112 158.52 94.894 158.866 94.6597C159.213 94.4253 159.477 94.0884 159.657 93.6489C159.843 93.2095 159.936 92.6797 159.936 92.0596V92.0449C159.936 91.4199 159.843 90.8877 159.657 90.4482C159.477 90.0088 159.213 89.6743 158.866 89.4448C158.52 89.2104 158.097 89.0933 157.599 89.0933C157.101 89.0933 156.679 89.2104 156.332 89.4448C155.985 89.6743 155.719 90.0088 155.534 90.4482C155.353 90.8877 155.263 91.4199 155.263 92.0449V92.0596C155.263 92.6797 155.353 93.2095 155.534 93.6489C155.719 94.0884 155.985 94.4253 156.332 94.6597C156.679 94.894 157.101 95.0112 157.599 95.0112ZM163.217 96V88.1045H164.491V89.291H164.608C164.809 88.8711 165.097 88.5464 165.473 88.3169C165.849 88.0825 166.327 87.9653 166.908 87.9653C167.797 87.9653 168.478 88.2192 168.952 88.7271C169.43 89.23 169.669 89.9502 169.669 90.8877V96H168.395V91.1953C168.395 90.4824 168.244 89.9551 167.941 89.6133C167.643 89.2666 167.179 89.0933 166.549 89.0933C166.129 89.0933 165.766 89.1836 165.458 89.3643C165.15 89.5449 164.911 89.8013 164.74 90.1333C164.574 90.4653 164.491 90.8633 164.491 91.3271V96H163.217ZM176.723 96V89.1592H175.412V88.1045H176.723V87.2256C176.723 86.6982 176.808 86.2637 176.979 85.9219C177.155 85.5752 177.414 85.3188 177.755 85.1528C178.097 84.9819 178.517 84.8965 179.015 84.8965C179.171 84.8965 179.318 84.9038 179.455 84.9185C179.596 84.9282 179.733 84.9453 179.865 84.9697V85.9878C179.787 85.9731 179.696 85.9634 179.594 85.9585C179.491 85.9536 179.384 85.9512 179.271 85.9512C178.817 85.9512 178.49 86.061 178.29 86.2808C178.095 86.5005 177.997 86.8276 177.997 87.2622V88.1045H179.792V89.1592H177.997V96H176.723ZM184.552 96.1392C183.805 96.1392 183.158 95.9756 182.611 95.6484C182.069 95.3164 181.649 94.8452 181.352 94.2349C181.059 93.6245 180.912 92.8994 180.912 92.0596V92.0449C180.912 91.2002 181.059 90.4727 181.352 89.8623C181.649 89.252 182.069 88.7832 182.611 88.4561C183.158 88.1289 183.805 87.9653 184.552 87.9653C185.304 87.9653 185.951 88.1289 186.493 88.4561C187.035 88.7832 187.453 89.252 187.746 89.8623C188.043 90.4727 188.192 91.2002 188.192 92.0449V92.0596C188.192 92.8994 188.043 93.6245 187.746 94.2349C187.453 94.8452 187.035 95.3164 186.493 95.6484C185.951 95.9756 185.304 96.1392 184.552 96.1392ZM184.552 95.0112C185.05 95.0112 185.473 94.894 185.819 94.6597C186.166 94.4253 186.43 94.0884 186.61 93.6489C186.796 93.2095 186.889 92.6797 186.889 92.0596V92.0449C186.889 91.4199 186.796 90.8877 186.61 90.4482C186.43 90.0088 186.166 89.6743 185.819 89.4448C185.473 89.2104 185.05 89.0933 184.552 89.0933C184.054 89.0933 183.632 89.2104 183.285 89.4448C182.938 89.6743 182.672 90.0088 182.487 90.4482C182.306 90.8877 182.216 91.4199 182.216 92.0449V92.0596C182.216 92.6797 182.306 93.2095 182.487 93.6489C182.672 94.0884 182.938 94.4253 183.285 94.6597C183.632 94.894 184.054 95.0112 184.552 95.0112ZM193.415 96.1392C192.667 96.1392 192.021 95.9756 191.474 95.6484C190.932 95.3164 190.512 94.8452 190.214 94.2349C189.921 93.6245 189.774 92.8994 189.774 92.0596V92.0449C189.774 91.2002 189.921 90.4727 190.214 89.8623C190.512 89.252 190.932 88.7832 191.474 88.4561C192.021 88.1289 192.667 87.9653 193.415 87.9653C194.167 87.9653 194.813 88.1289 195.355 88.4561C195.897 88.7832 196.315 89.252 196.608 89.8623C196.906 90.4727 197.055 91.2002 197.055 92.0449V92.0596C197.055 92.8994 196.906 93.6245 196.608 94.2349C196.315 94.8452 195.897 95.3164 195.355 95.6484C194.813 95.9756 194.167 96.1392 193.415 96.1392ZM193.415 95.0112C193.913 95.0112 194.335 94.894 194.682 94.6597C195.028 94.4253 195.292 94.0884 195.473 93.6489C195.658 93.2095 195.751 92.6797 195.751 92.0596V92.0449C195.751 91.4199 195.658 90.8877 195.473 90.4482C195.292 90.0088 195.028 89.6743 194.682 89.4448C194.335 89.2104 193.913 89.0933 193.415 89.0933C192.917 89.0933 192.494 89.2104 192.147 89.4448C191.801 89.6743 191.535 90.0088 191.349 90.4482C191.168 90.8877 191.078 91.4199 191.078 92.0449V92.0596C191.078 92.6797 191.168 93.2095 191.349 93.6489C191.535 94.0884 191.801 94.4253 192.147 94.6597C192.494 94.894 192.917 95.0112 193.415 95.0112ZM201.837 96.0586C201.027 96.0586 200.438 95.895 200.072 95.5679C199.711 95.2407 199.53 94.7012 199.53 93.9492V89.1592H198.285V88.1045H199.53V86.061H200.849V88.1045H202.577V89.1592H200.849V93.627C200.849 94.0908 200.937 94.4253 201.112 94.6304C201.288 94.8306 201.581 94.9307 201.991 94.9307C202.104 94.9307 202.199 94.9282 202.277 94.9233C202.36 94.9185 202.46 94.9111 202.577 94.9014V95.9854C202.455 96.0049 202.333 96.022 202.211 96.0366C202.089 96.0513 201.964 96.0586 201.837 96.0586ZM204.481 98.6367V88.1045H205.756V89.3643H205.873C206.034 89.0713 206.237 88.8223 206.481 88.6172C206.725 88.4072 207.003 88.2461 207.316 88.1338C207.628 88.0215 207.968 87.9653 208.334 87.9653C209.003 87.9653 209.584 88.1362 210.077 88.478C210.575 88.8149 210.961 89.2886 211.234 89.8989C211.508 90.5093 211.645 91.2246 211.645 92.0449V92.0596C211.645 92.8848 211.508 93.6025 211.234 94.2129C210.961 94.8232 210.575 95.2969 210.077 95.6338C209.584 95.9707 209.003 96.1392 208.334 96.1392C207.973 96.1392 207.631 96.083 207.309 95.9707C206.991 95.8535 206.708 95.6924 206.459 95.4873C206.215 95.2822 206.02 95.0381 205.873 94.7549H205.756V98.6367H204.481ZM208.041 95.0112C208.524 95.0112 208.937 94.894 209.279 94.6597C209.621 94.4204 209.882 94.0811 210.062 93.6416C210.248 93.1973 210.341 92.6699 210.341 92.0596V92.0449C210.341 91.4297 210.248 90.9023 210.062 90.4629C209.882 90.0234 209.621 89.6865 209.279 89.4521C208.937 89.2129 208.524 89.0933 208.041 89.0933C207.562 89.0933 207.15 89.2129 206.803 89.4521C206.457 89.6914 206.19 90.0308 206.005 90.4702C205.819 90.9097 205.727 91.4346 205.727 92.0449V92.0596C205.727 92.665 205.819 93.1899 206.005 93.6343C206.19 94.0737 206.457 94.4131 206.803 94.6523C207.15 94.8916 207.562 95.0112 208.041 95.0112ZM213.637 96V88.1045H214.911V89.2764H215.028C215.18 88.8613 215.436 88.5391 215.797 88.3096C216.159 88.0801 216.605 87.9653 217.138 87.9653C217.26 87.9653 217.379 87.9727 217.497 87.9873C217.619 87.9971 217.711 88.0068 217.775 88.0166V89.2544C217.643 89.23 217.514 89.2129 217.387 89.2031C217.265 89.1885 217.133 89.1812 216.991 89.1812C216.586 89.1812 216.227 89.2617 215.915 89.4229C215.602 89.584 215.355 89.8086 215.175 90.0967C214.999 90.3848 214.911 90.7217 214.911 91.1074V96H213.637ZM219.379 96V88.1045H220.653V96H219.379ZM220.023 86.5811C219.784 86.5811 219.577 86.4956 219.401 86.3247C219.23 86.1489 219.145 85.9414 219.145 85.7021C219.145 85.458 219.23 85.2505 219.401 85.0796C219.577 84.9087 219.784 84.8232 220.023 84.8232C220.268 84.8232 220.475 84.9087 220.646 85.0796C220.817 85.2505 220.902 85.458 220.902 85.7021C220.902 85.9414 220.817 86.1489 220.646 86.3247C220.475 86.4956 220.268 86.5811 220.023 86.5811ZM223.056 96V88.1045H224.33V89.291H224.447C224.647 88.8711 224.936 88.5464 225.312 88.3169C225.688 88.0825 226.166 87.9653 226.747 87.9653C227.636 87.9653 228.317 88.2192 228.791 88.7271C229.269 89.23 229.508 89.9502 229.508 90.8877V96H228.234V91.1953C228.234 90.4824 228.083 89.9551 227.78 89.6133C227.482 89.2666 227.018 89.0933 226.388 89.0933C225.968 89.0933 225.604 89.1836 225.297 89.3643C224.989 89.5449 224.75 89.8013 224.579 90.1333C224.413 90.4653 224.33 90.8633 224.33 91.3271V96H223.056ZM234.621 96.0586C233.81 96.0586 233.222 95.895 232.855 95.5679C232.494 95.2407 232.313 94.7012 232.313 93.9492V89.1592H231.068V88.1045H232.313V86.061H233.632V88.1045H235.36V89.1592H233.632V93.627C233.632 94.0908 233.72 94.4253 233.896 94.6304C234.071 94.8306 234.364 94.9307 234.774 94.9307C234.887 94.9307 234.982 94.9282 235.06 94.9233C235.143 94.9185 235.243 94.9111 235.36 94.9014V95.9854C235.238 96.0049 235.116 96.022 234.994 96.0366C234.872 96.0513 234.748 96.0586 234.621 96.0586ZM19.8965 111.139C19.3105 111.139 18.793 111.051 18.3438 110.875C17.8945 110.695 17.5332 110.443 17.2598 110.121C16.9912 109.799 16.8325 109.42 16.7837 108.986H18.0874C18.1948 109.313 18.4048 109.577 18.7173 109.777C19.0298 109.977 19.4375 110.077 19.9404 110.077C20.2969 110.077 20.6094 110.026 20.8779 109.923C21.1514 109.816 21.3662 109.672 21.5225 109.491C21.6787 109.306 21.7568 109.093 21.7568 108.854V108.839C21.7568 108.571 21.6494 108.344 21.4346 108.158C21.2197 107.968 20.8682 107.814 20.3799 107.697L19.1567 107.404C18.6636 107.287 18.2583 107.135 17.9409 106.95C17.6235 106.759 17.3892 106.527 17.2378 106.254C17.0864 105.976 17.0107 105.648 17.0107 105.272V105.265C17.0107 104.826 17.1377 104.433 17.3916 104.086C17.6504 103.739 18.002 103.466 18.4463 103.266C18.8906 103.065 19.3911 102.965 19.9478 102.965C20.4995 102.965 20.9878 103.053 21.4126 103.229C21.8423 103.4 22.1865 103.644 22.4453 103.961C22.709 104.279 22.8701 104.652 22.9287 105.082H21.6763C21.5933 104.77 21.4028 104.516 21.105 104.32C20.8071 104.125 20.4189 104.027 19.9404 104.027C19.6279 104.027 19.3496 104.079 19.1055 104.181C18.8613 104.279 18.6685 104.416 18.5269 104.591C18.3853 104.767 18.3145 104.972 18.3145 105.207V105.221C18.3145 105.397 18.3608 105.553 18.4536 105.69C18.5464 105.827 18.6904 105.946 18.8857 106.049C19.0811 106.151 19.3325 106.242 19.6401 106.32L20.856 106.613C21.5981 106.793 22.1499 107.052 22.5112 107.389C22.8774 107.726 23.0605 108.178 23.0605 108.744V108.759C23.0605 109.228 22.9214 109.643 22.6431 110.004C22.3647 110.36 21.9863 110.639 21.5078 110.839C21.0342 111.039 20.4971 111.139 19.8965 111.139ZM28.2681 111.139C27.5308 111.139 26.8911 110.971 26.3491 110.634C25.8071 110.297 25.3872 109.821 25.0894 109.206C24.7915 108.59 24.6426 107.865 24.6426 107.03V107.016C24.6426 106.195 24.7891 105.482 25.082 104.877C25.3799 104.271 25.7998 103.803 26.3418 103.471C26.8838 103.134 27.5234 102.965 28.2607 102.965C28.9004 102.965 29.4521 103.078 29.916 103.302C30.3799 103.527 30.751 103.83 31.0293 104.21C31.3076 104.586 31.4858 105.009 31.564 105.478L31.5713 105.521H30.3042L30.2969 105.5C30.1992 105.109 29.9771 104.777 29.6304 104.503C29.2837 104.23 28.8271 104.093 28.2607 104.093C27.7871 104.093 27.377 104.213 27.0303 104.452C26.6836 104.691 26.415 105.031 26.2246 105.47C26.0391 105.905 25.9463 106.42 25.9463 107.016V107.03C25.9463 107.636 26.0415 108.163 26.2319 108.612C26.4224 109.057 26.6909 109.401 27.0376 109.645C27.3843 109.889 27.792 110.011 28.2607 110.011C28.793 110.011 29.2275 109.896 29.5645 109.667C29.9014 109.438 30.1431 109.103 30.2896 108.664L30.3042 108.62L31.564 108.612L31.5493 108.693C31.4419 109.167 31.2515 109.589 30.978 109.96C30.7046 110.326 30.3433 110.614 29.894 110.824C29.4448 111.034 28.9028 111.139 28.2681 111.139ZM36.6763 111.139C35.9292 111.139 35.2822 110.976 34.7354 110.648C34.1934 110.316 33.7734 109.845 33.4756 109.235C33.1826 108.625 33.0361 107.899 33.0361 107.06V107.045C33.0361 106.2 33.1826 105.473 33.4756 104.862C33.7734 104.252 34.1934 103.783 34.7354 103.456C35.2822 103.129 35.9292 102.965 36.6763 102.965C37.4282 102.965 38.0752 103.129 38.6172 103.456C39.1592 103.783 39.5767 104.252 39.8696 104.862C40.1675 105.473 40.3164 106.2 40.3164 107.045V107.06C40.3164 107.899 40.1675 108.625 39.8696 109.235C39.5767 109.845 39.1592 110.316 38.6172 110.648C38.0752 110.976 37.4282 111.139 36.6763 111.139ZM36.6763 110.011C37.1743 110.011 37.5967 109.894 37.9434 109.66C38.29 109.425 38.5537 109.088 38.7344 108.649C38.9199 108.209 39.0127 107.68 39.0127 107.06V107.045C39.0127 106.42 38.9199 105.888 38.7344 105.448C38.5537 105.009 38.29 104.674 37.9434 104.445C37.5967 104.21 37.1743 104.093 36.6763 104.093C36.1782 104.093 35.7559 104.21 35.4092 104.445C35.0625 104.674 34.7964 105.009 34.6108 105.448C34.4302 105.888 34.3398 106.42 34.3398 107.045V107.06C34.3398 107.68 34.4302 108.209 34.6108 108.649C34.7964 109.088 35.0625 109.425 35.4092 109.66C35.7559 109.894 36.1782 110.011 36.6763 110.011ZM42.2939 111V103.104H43.5684V104.276H43.6855C43.8369 103.861 44.0933 103.539 44.4546 103.31C44.8159 103.08 45.2627 102.965 45.7949 102.965C45.917 102.965 46.0366 102.973 46.1538 102.987C46.2759 102.997 46.3687 103.007 46.4321 103.017V104.254C46.3003 104.23 46.1709 104.213 46.0439 104.203C45.9219 104.188 45.79 104.181 45.6484 104.181C45.2432 104.181 44.8843 104.262 44.5718 104.423C44.2593 104.584 44.0127 104.809 43.832 105.097C43.6562 105.385 43.5684 105.722 43.5684 106.107V111H42.2939ZM51.0098 111.139C50.2578 111.139 49.6108 110.973 49.0688 110.641C48.5317 110.309 48.1167 109.84 47.8237 109.235C47.5356 108.625 47.3916 107.907 47.3916 107.082V107.074C47.3916 106.259 47.5356 105.543 47.8237 104.928C48.1167 104.313 48.5293 103.832 49.0615 103.485C49.5938 103.139 50.2163 102.965 50.9292 102.965C51.647 102.965 52.2622 103.131 52.7749 103.463C53.2925 103.795 53.688 104.259 53.9614 104.855C54.2397 105.446 54.3789 106.134 54.3789 106.92V107.418H48.0508V106.4H53.7271L53.0972 107.331V106.825C53.0972 106.205 53.0044 105.695 52.8188 105.294C52.6333 104.894 52.377 104.596 52.0498 104.401C51.7227 104.201 51.3467 104.101 50.9219 104.101C50.4971 104.101 50.1162 104.206 49.7793 104.416C49.4473 104.621 49.1836 104.926 48.9883 105.331C48.793 105.736 48.6953 106.234 48.6953 106.825V107.331C48.6953 107.892 48.7905 108.373 48.981 108.773C49.1714 109.169 49.4424 109.474 49.7939 109.689C50.1455 109.899 50.5605 110.004 51.0391 110.004C51.3955 110.004 51.7056 109.955 51.9692 109.857C52.2329 109.76 52.4502 109.635 52.6211 109.484C52.792 109.333 52.9116 109.179 52.98 109.022L53.0093 108.957H54.2837L54.269 109.015C54.2007 109.284 54.0786 109.545 53.9028 109.799C53.7319 110.048 53.5098 110.275 53.2363 110.48C52.9629 110.68 52.6382 110.841 52.2622 110.963C51.8911 111.081 51.4736 111.139 51.0098 111.139ZM64.501 111.139C64.1348 111.139 63.7954 111.083 63.4829 110.971C63.1704 110.858 62.8921 110.7 62.6479 110.495C62.4038 110.285 62.2012 110.033 62.04 109.74H61.9229V111H60.6484V99.9697H61.9229V104.35H62.04C62.1865 104.066 62.3818 103.822 62.626 103.617C62.875 103.412 63.1582 103.253 63.4756 103.141C63.7979 103.024 64.1396 102.965 64.501 102.965C65.1699 102.965 65.751 103.134 66.2441 103.471C66.7422 103.808 67.1279 104.281 67.4014 104.892C67.6748 105.502 67.8115 106.22 67.8115 107.045V107.06C67.8115 107.88 67.6748 108.598 67.4014 109.213C67.1279 109.823 66.7422 110.297 66.2441 110.634C65.751 110.971 65.1699 111.139 64.501 111.139ZM64.208 110.011C64.6914 110.011 65.104 109.894 65.4458 109.66C65.7876 109.42 66.0488 109.081 66.2295 108.642C66.415 108.197 66.5078 107.67 66.5078 107.06V107.045C66.5078 106.43 66.415 105.902 66.2295 105.463C66.0488 105.023 65.7876 104.687 65.4458 104.452C65.104 104.213 64.6914 104.093 64.208 104.093C63.7295 104.093 63.3169 104.213 62.9702 104.452C62.6235 104.691 62.3574 105.031 62.1719 105.47C61.9863 105.91 61.8936 106.435 61.8936 107.045V107.06C61.8936 107.665 61.9863 108.19 62.1719 108.634C62.3574 109.074 62.6235 109.413 62.9702 109.652C63.3169 109.892 63.7295 110.011 64.208 110.011ZM71.957 111.139C71.459 111.139 71.0098 111.044 70.6094 110.854C70.2139 110.663 69.8989 110.392 69.6646 110.041C69.4351 109.689 69.3203 109.274 69.3203 108.795V108.781C69.3203 108.312 69.4326 107.912 69.6572 107.58C69.8818 107.243 70.209 106.979 70.6387 106.789C71.0684 106.598 71.5884 106.486 72.1987 106.452L75.0991 106.276V107.294L72.3525 107.47C71.752 107.504 71.3125 107.628 71.0342 107.843C70.7607 108.058 70.624 108.361 70.624 108.751V108.766C70.624 109.167 70.7754 109.479 71.0781 109.704C71.3809 109.923 71.7617 110.033 72.2207 110.033C72.6553 110.033 73.041 109.948 73.3779 109.777C73.7148 109.601 73.9785 109.364 74.1689 109.066C74.3643 108.769 74.4619 108.432 74.4619 108.056V105.595C74.4619 105.106 74.313 104.735 74.0151 104.481C73.7222 104.223 73.2803 104.093 72.6895 104.093C72.2158 104.093 71.8276 104.179 71.5249 104.35C71.2222 104.516 71.0195 104.752 70.917 105.06L70.9097 105.082H69.6353L69.6426 105.038C69.7109 104.623 69.8818 104.262 70.1553 103.954C70.4336 103.642 70.7925 103.4 71.2319 103.229C71.6714 103.053 72.1719 102.965 72.7334 102.965C73.3779 102.965 73.9224 103.07 74.3667 103.28C74.8159 103.49 75.1553 103.793 75.3848 104.188C75.6191 104.579 75.7363 105.048 75.7363 105.595V111H74.4619V109.835H74.3447C74.1787 110.114 73.9761 110.351 73.7368 110.546C73.5024 110.741 73.2363 110.89 72.9385 110.993C72.6406 111.09 72.3135 111.139 71.957 111.139ZM80.7754 111.139C80.1895 111.139 79.6719 111.051 79.2227 110.875C78.7734 110.695 78.4121 110.443 78.1387 110.121C77.8701 109.799 77.7114 109.42 77.6626 108.986H78.9663C79.0737 109.313 79.2837 109.577 79.5962 109.777C79.9087 109.977 80.3164 110.077 80.8193 110.077C81.1758 110.077 81.4883 110.026 81.7568 109.923C82.0303 109.816 82.2451 109.672 82.4014 109.491C82.5576 109.306 82.6357 109.093 82.6357 108.854V108.839C82.6357 108.571 82.5283 108.344 82.3135 108.158C82.0986 107.968 81.7471 107.814 81.2588 107.697L80.0356 107.404C79.5425 107.287 79.1372 107.135 78.8198 106.95C78.5024 106.759 78.2681 106.527 78.1167 106.254C77.9653 105.976 77.8896 105.648 77.8896 105.272V105.265C77.8896 104.826 78.0166 104.433 78.2705 104.086C78.5293 103.739 78.8809 103.466 79.3252 103.266C79.7695 103.065 80.27 102.965 80.8267 102.965C81.3784 102.965 81.8667 103.053 82.2915 103.229C82.7212 103.4 83.0654 103.644 83.3242 103.961C83.5879 104.279 83.749 104.652 83.8076 105.082H82.5552C82.4722 104.77 82.2817 104.516 81.9839 104.32C81.686 104.125 81.2979 104.027 80.8193 104.027C80.5068 104.027 80.2285 104.079 79.9844 104.181C79.7402 104.279 79.5474 104.416 79.4058 104.591C79.2642 104.767 79.1934 104.972 79.1934 105.207V105.221C79.1934 105.397 79.2397 105.553 79.3325 105.69C79.4253 105.827 79.5693 105.946 79.7646 106.049C79.96 106.151 80.2114 106.242 80.519 106.32L81.7349 106.613C82.4771 106.793 83.0288 107.052 83.3901 107.389C83.7563 107.726 83.9395 108.178 83.9395 108.744V108.759C83.9395 109.228 83.8003 109.643 83.522 110.004C83.2437 110.36 82.8652 110.639 82.3867 110.839C81.9131 111.039 81.376 111.139 80.7754 111.139ZM89.1396 111.139C88.3877 111.139 87.7407 110.973 87.1987 110.641C86.6616 110.309 86.2466 109.84 85.9536 109.235C85.6655 108.625 85.5215 107.907 85.5215 107.082V107.074C85.5215 106.259 85.6655 105.543 85.9536 104.928C86.2466 104.313 86.6592 103.832 87.1914 103.485C87.7236 103.139 88.3462 102.965 89.0591 102.965C89.7769 102.965 90.3921 103.131 90.9048 103.463C91.4224 103.795 91.8179 104.259 92.0913 104.855C92.3696 105.446 92.5088 106.134 92.5088 106.92V107.418H86.1807V106.4H91.8569L91.2271 107.331V106.825C91.2271 106.205 91.1343 105.695 90.9487 105.294C90.7632 104.894 90.5068 104.596 90.1797 104.401C89.8525 104.201 89.4766 104.101 89.0518 104.101C88.627 104.101 88.2461 104.206 87.9092 104.416C87.5771 104.621 87.3135 104.926 87.1182 105.331C86.9229 105.736 86.8252 106.234 86.8252 106.825V107.331C86.8252 107.892 86.9204 108.373 87.1108 108.773C87.3013 109.169 87.5723 109.474 87.9238 109.689C88.2754 109.899 88.6904 110.004 89.1689 110.004C89.5254 110.004 89.8354 109.955 90.0991 109.857C90.3628 109.76 90.5801 109.635 90.751 109.484C90.9219 109.333 91.0415 109.179 91.1099 109.022L91.1392 108.957H92.4136L92.3989 109.015C92.3306 109.284 92.2085 109.545 92.0327 109.799C91.8618 110.048 91.6396 110.275 91.3662 110.48C91.0928 110.68 90.7681 110.841 90.3921 110.963C90.021 111.081 89.6035 111.139 89.1396 111.139ZM97.4014 111.139C96.7373 111.139 96.1562 110.971 95.6582 110.634C95.1602 110.297 94.7744 109.823 94.501 109.213C94.2275 108.598 94.0908 107.88 94.0908 107.06V107.045C94.0908 106.22 94.2275 105.502 94.501 104.892C94.7744 104.281 95.1577 103.808 95.6509 103.471C96.1489 103.134 96.7324 102.965 97.4014 102.965C97.7627 102.965 98.1021 103.024 98.4194 103.141C98.7417 103.253 99.0273 103.412 99.2764 103.617C99.5254 103.822 99.7207 104.066 99.8623 104.35H99.9795V99.9697H101.254V111H99.9795V109.74H99.8623C99.7012 110.033 99.4985 110.285 99.2544 110.495C99.0103 110.7 98.7319 110.858 98.4194 110.971C98.1069 111.083 97.7676 111.139 97.4014 111.139ZM97.6943 110.011C98.1729 110.011 98.5854 109.892 98.9321 109.652C99.2788 109.413 99.5449 109.074 99.7305 108.634C99.916 108.19 100.009 107.665 100.009 107.06V107.045C100.009 106.435 99.916 105.91 99.7305 105.47C99.5449 105.031 99.2788 104.691 98.9321 104.452C98.5854 104.213 98.1729 104.093 97.6943 104.093C97.2158 104.093 96.8032 104.213 96.4565 104.452C96.1147 104.687 95.8511 105.023 95.6655 105.463C95.4849 105.902 95.3945 106.43 95.3945 107.045V107.06C95.3945 107.67 95.4849 108.197 95.6655 108.642C95.8511 109.081 96.1147 109.42 96.4565 109.66C96.8032 109.894 97.2158 110.011 97.6943 110.011ZM111.164 111.139C110.417 111.139 109.77 110.976 109.223 110.648C108.681 110.316 108.261 109.845 107.963 109.235C107.67 108.625 107.523 107.899 107.523 107.06V107.045C107.523 106.2 107.67 105.473 107.963 104.862C108.261 104.252 108.681 103.783 109.223 103.456C109.77 103.129 110.417 102.965 111.164 102.965C111.916 102.965 112.562 103.129 113.104 103.456C113.646 103.783 114.064 104.252 114.357 104.862C114.655 105.473 114.804 106.2 114.804 107.045V107.06C114.804 107.899 114.655 108.625 114.357 109.235C114.064 109.845 113.646 110.316 113.104 110.648C112.562 110.976 111.916 111.139 111.164 111.139ZM111.164 110.011C111.662 110.011 112.084 109.894 112.431 109.66C112.777 109.425 113.041 109.088 113.222 108.649C113.407 108.209 113.5 107.68 113.5 107.06V107.045C113.5 106.42 113.407 105.888 113.222 105.448C113.041 105.009 112.777 104.674 112.431 104.445C112.084 104.21 111.662 104.093 111.164 104.093C110.666 104.093 110.243 104.21 109.896 104.445C109.55 104.674 109.284 105.009 109.098 105.448C108.917 105.888 108.827 106.42 108.827 107.045V107.06C108.827 107.68 108.917 108.209 109.098 108.649C109.284 109.088 109.55 109.425 109.896 109.66C110.243 109.894 110.666 110.011 111.164 110.011ZM116.781 111V103.104H118.056V104.291H118.173C118.373 103.871 118.661 103.546 119.037 103.317C119.413 103.083 119.892 102.965 120.473 102.965C121.361 102.965 122.042 103.219 122.516 103.727C122.995 104.23 123.234 104.95 123.234 105.888V111H121.959V106.195C121.959 105.482 121.808 104.955 121.505 104.613C121.208 104.267 120.744 104.093 120.114 104.093C119.694 104.093 119.33 104.184 119.022 104.364C118.715 104.545 118.476 104.801 118.305 105.133C118.139 105.465 118.056 105.863 118.056 106.327V111H116.781ZM129.833 111V99.9697H131.107V104.291H131.225C131.425 103.871 131.713 103.546 132.089 103.317C132.465 103.083 132.943 102.965 133.524 102.965C134.115 102.965 134.616 103.08 135.026 103.31C135.436 103.534 135.749 103.864 135.963 104.298C136.178 104.733 136.286 105.263 136.286 105.888V111H135.011V106.195C135.011 105.482 134.86 104.955 134.557 104.613C134.259 104.267 133.795 104.093 133.166 104.093C132.746 104.093 132.382 104.184 132.074 104.364C131.767 104.545 131.527 104.801 131.356 105.133C131.19 105.465 131.107 105.863 131.107 106.327V111H129.833ZM141.837 111.139C141.09 111.139 140.443 110.976 139.896 110.648C139.354 110.316 138.935 109.845 138.637 109.235C138.344 108.625 138.197 107.899 138.197 107.06V107.045C138.197 106.2 138.344 105.473 138.637 104.862C138.935 104.252 139.354 103.783 139.896 103.456C140.443 103.129 141.09 102.965 141.837 102.965C142.589 102.965 143.236 103.129 143.778 103.456C144.32 103.783 144.738 104.252 145.031 104.862C145.329 105.473 145.478 106.2 145.478 107.045V107.06C145.478 107.899 145.329 108.625 145.031 109.235C144.738 109.845 144.32 110.316 143.778 110.648C143.236 110.976 142.589 111.139 141.837 111.139ZM141.837 110.011C142.335 110.011 142.758 109.894 143.104 109.66C143.451 109.425 143.715 109.088 143.896 108.649C144.081 108.209 144.174 107.68 144.174 107.06V107.045C144.174 106.42 144.081 105.888 143.896 105.448C143.715 105.009 143.451 104.674 143.104 104.445C142.758 104.21 142.335 104.093 141.837 104.093C141.339 104.093 140.917 104.21 140.57 104.445C140.224 104.674 139.958 105.009 139.772 105.448C139.591 105.888 139.501 106.42 139.501 107.045V107.06C139.501 107.68 139.591 108.209 139.772 108.649C139.958 109.088 140.224 109.425 140.57 109.66C140.917 109.894 141.339 110.011 141.837 110.011ZM148.686 111L146.474 103.104H147.748L149.301 109.418H149.418L151.183 103.104H152.392L154.157 109.418H154.274L155.827 103.104H157.094L154.882 111H153.6L151.835 104.892H151.718L149.96 111H148.686ZM162.997 111V103.104H164.271V104.306H164.389C164.564 103.881 164.833 103.551 165.194 103.317C165.561 103.083 166.002 102.965 166.52 102.965C166.876 102.965 167.196 103.024 167.479 103.141C167.763 103.258 168.007 103.422 168.212 103.632C168.417 103.837 168.581 104.076 168.703 104.35H168.82C168.961 104.071 169.152 103.83 169.391 103.625C169.63 103.415 169.906 103.253 170.219 103.141C170.536 103.024 170.875 102.965 171.237 102.965C171.774 102.965 172.228 103.065 172.599 103.266C172.975 103.466 173.261 103.759 173.456 104.145C173.651 104.525 173.749 104.992 173.749 105.543V111H172.475V105.836C172.475 105.446 172.414 105.124 172.292 104.87C172.174 104.611 171.994 104.418 171.75 104.291C171.505 104.159 171.198 104.093 170.827 104.093C170.46 104.093 170.141 104.176 169.867 104.342C169.594 104.508 169.381 104.73 169.23 105.009C169.079 105.282 169.003 105.587 169.003 105.924V111H167.729V105.639C167.729 105.326 167.66 105.055 167.523 104.826C167.392 104.591 167.201 104.411 166.952 104.284C166.708 104.157 166.42 104.093 166.088 104.093C165.746 104.093 165.436 104.184 165.158 104.364C164.884 104.545 164.667 104.789 164.506 105.097C164.35 105.399 164.271 105.736 164.271 106.107V111H162.997ZM178.693 111.139C178.097 111.139 177.597 111.027 177.191 110.802C176.786 110.573 176.481 110.241 176.276 109.806C176.076 109.367 175.976 108.837 175.976 108.217V103.104H177.25V107.909C177.25 108.617 177.387 109.145 177.66 109.491C177.938 109.838 178.393 110.011 179.022 110.011C179.369 110.011 179.674 109.96 179.938 109.857C180.207 109.755 180.431 109.608 180.612 109.418C180.792 109.223 180.927 108.988 181.015 108.715C181.107 108.437 181.154 108.124 181.154 107.777V103.104H182.428V111H181.154V109.821H181.037C180.91 110.099 180.736 110.338 180.517 110.539C180.297 110.734 180.033 110.883 179.726 110.985C179.423 111.088 179.079 111.139 178.693 111.139ZM188.039 111.139C187.301 111.139 186.662 110.971 186.12 110.634C185.578 110.297 185.158 109.821 184.86 109.206C184.562 108.59 184.413 107.865 184.413 107.03V107.016C184.413 106.195 184.56 105.482 184.853 104.877C185.15 104.271 185.57 103.803 186.112 103.471C186.654 103.134 187.294 102.965 188.031 102.965C188.671 102.965 189.223 103.078 189.687 103.302C190.15 103.527 190.521 103.83 190.8 104.21C191.078 104.586 191.256 105.009 191.334 105.478L191.342 105.521H190.075L190.067 105.5C189.97 105.109 189.748 104.777 189.401 104.503C189.054 104.23 188.598 104.093 188.031 104.093C187.558 104.093 187.147 104.213 186.801 104.452C186.454 104.691 186.186 105.031 185.995 105.47C185.81 105.905 185.717 106.42 185.717 107.016V107.03C185.717 107.636 185.812 108.163 186.002 108.612C186.193 109.057 186.461 109.401 186.808 109.645C187.155 109.889 187.562 110.011 188.031 110.011C188.563 110.011 188.998 109.896 189.335 109.667C189.672 109.438 189.914 109.103 190.06 108.664L190.075 108.62L191.334 108.612L191.32 108.693C191.212 109.167 191.022 109.589 190.749 109.96C190.475 110.326 190.114 110.614 189.665 110.824C189.215 111.034 188.673 111.139 188.039 111.139ZM193.275 111V99.9697H194.55V104.291H194.667C194.867 103.871 195.155 103.546 195.531 103.317C195.907 103.083 196.386 102.965 196.967 102.965C197.558 102.965 198.058 103.08 198.468 103.31C198.878 103.534 199.191 103.864 199.406 104.298C199.621 104.733 199.728 105.263 199.728 105.888V111H198.454V106.195C198.454 105.482 198.302 104.955 198 104.613C197.702 104.267 197.238 104.093 196.608 104.093C196.188 104.093 195.824 104.184 195.517 104.364C195.209 104.545 194.97 104.801 194.799 105.133C194.633 105.465 194.55 105.863 194.55 106.327V111H193.275ZM206.928 113.769C206.845 113.769 206.752 113.764 206.649 113.754C206.547 113.749 206.452 113.739 206.364 113.725V112.677C206.442 112.692 206.527 112.702 206.62 112.707C206.713 112.711 206.803 112.714 206.891 112.714C207.252 112.714 207.548 112.621 207.777 112.436C208.012 112.25 208.2 111.93 208.341 111.476L208.488 111.007L205.565 103.104H206.928L209.359 110.399L208.854 109.601H209.455L208.949 110.399L211.374 103.104H212.714L209.63 111.483C209.416 112.074 209.188 112.536 208.949 112.868C208.71 113.2 208.429 113.432 208.107 113.563C207.79 113.7 207.396 113.769 206.928 113.769ZM217.35 111.139C216.603 111.139 215.956 110.976 215.409 110.648C214.867 110.316 214.447 109.845 214.149 109.235C213.856 108.625 213.71 107.899 213.71 107.06V107.045C213.71 106.2 213.856 105.473 214.149 104.862C214.447 104.252 214.867 103.783 215.409 103.456C215.956 103.129 216.603 102.965 217.35 102.965C218.102 102.965 218.749 103.129 219.291 103.456C219.833 103.783 220.25 104.252 220.543 104.862C220.841 105.473 220.99 106.2 220.99 107.045V107.06C220.99 107.899 220.841 108.625 220.543 109.235C220.25 109.845 219.833 110.316 219.291 110.648C218.749 110.976 218.102 111.139 217.35 111.139ZM217.35 110.011C217.848 110.011 218.271 109.894 218.617 109.66C218.964 109.425 219.228 109.088 219.408 108.649C219.594 108.209 219.687 107.68 219.687 107.06V107.045C219.687 106.42 219.594 105.888 219.408 105.448C219.228 105.009 218.964 104.674 218.617 104.445C218.271 104.21 217.848 104.093 217.35 104.093C216.852 104.093 216.43 104.21 216.083 104.445C215.736 104.674 215.47 105.009 215.285 105.448C215.104 105.888 215.014 106.42 215.014 107.045V107.06C215.014 107.68 215.104 108.209 215.285 108.649C215.47 109.088 215.736 109.425 216.083 109.66C216.43 109.894 216.852 110.011 217.35 110.011ZM225.612 111.139C225.016 111.139 224.516 111.027 224.11 110.802C223.705 110.573 223.4 110.241 223.195 109.806C222.995 109.367 222.895 108.837 222.895 108.217V103.104H224.169V107.909C224.169 108.617 224.306 109.145 224.579 109.491C224.857 109.838 225.312 110.011 225.941 110.011C226.288 110.011 226.593 109.96 226.857 109.857C227.125 109.755 227.35 109.608 227.531 109.418C227.711 109.223 227.846 108.988 227.934 108.715C228.026 108.437 228.073 108.124 228.073 107.777V103.104H229.347V111H228.073V109.821H227.956C227.829 110.099 227.655 110.338 227.436 110.539C227.216 110.734 226.952 110.883 226.645 110.985C226.342 111.088 225.998 111.139 225.612 111.139ZM17.1865 126V118.104H18.4609V119.276H18.5781C18.7295 118.861 18.9858 118.539 19.3472 118.31C19.7085 118.08 20.1553 117.965 20.6875 117.965C20.8096 117.965 20.9292 117.973 21.0464 117.987C21.1685 117.997 21.2612 118.007 21.3247 118.017V119.254C21.1929 119.23 21.0635 119.213 20.9365 119.203C20.8145 119.188 20.6826 119.181 20.541 119.181C20.1357 119.181 19.7769 119.262 19.4644 119.423C19.1519 119.584 18.9053 119.809 18.7246 120.097C18.5488 120.385 18.4609 120.722 18.4609 121.107V126H17.1865ZM25.9023 126.139C25.1504 126.139 24.5034 125.973 23.9614 125.641C23.4243 125.309 23.0093 124.84 22.7163 124.235C22.4282 123.625 22.2842 122.907 22.2842 122.082V122.074C22.2842 121.259 22.4282 120.543 22.7163 119.928C23.0093 119.313 23.4219 118.832 23.9541 118.485C24.4863 118.139 25.1089 117.965 25.8218 117.965C26.5396 117.965 27.1548 118.131 27.6675 118.463C28.1851 118.795 28.5806 119.259 28.854 119.855C29.1323 120.446 29.2715 121.134 29.2715 121.92V122.418H22.9434V121.4H28.6196L27.9897 122.331V121.825C27.9897 121.205 27.897 120.695 27.7114 120.294C27.5259 119.894 27.2695 119.596 26.9424 119.401C26.6152 119.201 26.2393 119.101 25.8145 119.101C25.3896 119.101 25.0088 119.206 24.6719 119.416C24.3398 119.621 24.0762 119.926 23.8809 120.331C23.6855 120.736 23.5879 121.234 23.5879 121.825V122.331C23.5879 122.892 23.6831 123.373 23.8735 123.773C24.064 124.169 24.335 124.474 24.6865 124.689C25.0381 124.899 25.4531 125.004 25.9316 125.004C26.2881 125.004 26.5981 124.955 26.8618 124.857C27.1255 124.76 27.3428 124.635 27.5137 124.484C27.6846 124.333 27.8042 124.179 27.8726 124.022L27.9019 123.957H29.1763L29.1616 124.015C29.0933 124.284 28.9712 124.545 28.7954 124.799C28.6245 125.048 28.4023 125.275 28.1289 125.48C27.8555 125.68 27.5308 125.841 27.1548 125.963C26.7837 126.081 26.3662 126.139 25.9023 126.139ZM34.479 126.139C33.7417 126.139 33.1021 125.971 32.5601 125.634C32.0181 125.297 31.5981 124.821 31.3003 124.206C31.0024 123.59 30.8535 122.865 30.8535 122.03V122.016C30.8535 121.195 31 120.482 31.293 119.877C31.5908 119.271 32.0107 118.803 32.5527 118.471C33.0947 118.134 33.7344 117.965 34.4717 117.965C35.1113 117.965 35.6631 118.078 36.127 118.302C36.5908 118.527 36.9619 118.83 37.2402 119.21C37.5186 119.586 37.6968 120.009 37.7749 120.478L37.7822 120.521H36.5151L36.5078 120.5C36.4102 120.109 36.188 119.777 35.8413 119.503C35.4946 119.23 35.0381 119.093 34.4717 119.093C33.998 119.093 33.5879 119.213 33.2412 119.452C32.8945 119.691 32.626 120.031 32.4355 120.47C32.25 120.905 32.1572 121.42 32.1572 122.016V122.03C32.1572 122.636 32.2524 123.163 32.4429 123.612C32.6333 124.057 32.9019 124.401 33.2485 124.645C33.5952 124.889 34.0029 125.011 34.4717 125.011C35.0039 125.011 35.4385 124.896 35.7754 124.667C36.1123 124.438 36.354 124.103 36.5005 123.664L36.5151 123.62L37.7749 123.612L37.7603 123.693C37.6528 124.167 37.4624 124.589 37.189 124.96C36.9155 125.326 36.5542 125.614 36.105 125.824C35.6558 126.034 35.1138 126.139 34.479 126.139ZM40.3164 128.769C40.2334 128.769 40.1406 128.764 40.0381 128.754C39.9355 128.749 39.8403 128.739 39.7524 128.725V127.677C39.8306 127.692 39.916 127.702 40.0088 127.707C40.1016 127.711 40.1919 127.714 40.2798 127.714C40.6411 127.714 40.9365 127.621 41.166 127.436C41.4004 127.25 41.5884 126.93 41.73 126.476L41.8765 126.007L38.9541 118.104H40.3164L42.748 125.399L42.2427 124.601H42.8433L42.3379 125.399L44.7622 118.104H46.1025L43.019 126.483C42.8042 127.074 42.5771 127.536 42.3379 127.868C42.0986 128.2 41.8179 128.432 41.4956 128.563C41.1782 128.7 40.7852 128.769 40.3164 128.769ZM50.7241 126.139C49.9868 126.139 49.3472 125.971 48.8052 125.634C48.2632 125.297 47.8433 124.821 47.5454 124.206C47.2476 123.59 47.0986 122.865 47.0986 122.03V122.016C47.0986 121.195 47.2451 120.482 47.5381 119.877C47.8359 119.271 48.2559 118.803 48.7979 118.471C49.3398 118.134 49.9795 117.965 50.7168 117.965C51.3564 117.965 51.9082 118.078 52.3721 118.302C52.8359 118.527 53.207 118.83 53.4854 119.21C53.7637 119.586 53.9419 120.009 54.02 120.478L54.0273 120.521H52.7603L52.7529 120.5C52.6553 120.109 52.4331 119.777 52.0864 119.503C51.7397 119.23 51.2832 119.093 50.7168 119.093C50.2432 119.093 49.833 119.213 49.4863 119.452C49.1396 119.691 48.8711 120.031 48.6807 120.47C48.4951 120.905 48.4023 121.42 48.4023 122.016V122.03C48.4023 122.636 48.4976 123.163 48.688 123.612C48.8784 124.057 49.147 124.401 49.4937 124.645C49.8403 124.889 50.248 125.011 50.7168 125.011C51.249 125.011 51.6836 124.896 52.0205 124.667C52.3574 124.438 52.5991 124.103 52.7456 123.664L52.7603 123.62L54.02 123.612L54.0054 123.693C53.8979 124.167 53.7075 124.589 53.4341 124.96C53.1606 125.326 52.7993 125.614 52.3501 125.824C51.9009 126.034 51.3589 126.139 50.7241 126.139ZM55.9609 126V114.97H57.2354V126H55.9609ZM62.9043 126.139C62.1523 126.139 61.5054 125.973 60.9634 125.641C60.4263 125.309 60.0112 124.84 59.7183 124.235C59.4302 123.625 59.2861 122.907 59.2861 122.082V122.074C59.2861 121.259 59.4302 120.543 59.7183 119.928C60.0112 119.313 60.4238 118.832 60.9561 118.485C61.4883 118.139 62.1108 117.965 62.8237 117.965C63.5415 117.965 64.1567 118.131 64.6694 118.463C65.187 118.795 65.5825 119.259 65.856 119.855C66.1343 120.446 66.2734 121.134 66.2734 121.92V122.418H59.9453V121.4H65.6216L64.9917 122.331V121.825C64.9917 121.205 64.8989 120.695 64.7134 120.294C64.5278 119.894 64.2715 119.596 63.9443 119.401C63.6172 119.201 63.2412 119.101 62.8164 119.101C62.3916 119.101 62.0107 119.206 61.6738 119.416C61.3418 119.621 61.0781 119.926 60.8828 120.331C60.6875 120.736 60.5898 121.234 60.5898 121.825V122.331C60.5898 122.892 60.6851 123.373 60.8755 123.773C61.0659 124.169 61.3369 124.474 61.6885 124.689C62.04 124.899 62.4551 125.004 62.9336 125.004C63.29 125.004 63.6001 124.955 63.8638 124.857C64.1274 124.76 64.3447 124.635 64.5156 124.484C64.6865 124.333 64.8062 124.179 64.8745 124.022L64.9038 123.957H66.1782L66.1636 124.015C66.0952 124.284 65.9731 124.545 65.7974 124.799C65.6265 125.048 65.4043 125.275 65.1309 125.48C64.8574 125.68 64.5327 125.841 64.1567 125.963C63.7856 126.081 63.3682 126.139 62.9043 126.139ZM74.6377 126.139C74.1396 126.139 73.6904 126.044 73.29 125.854C72.8945 125.663 72.5796 125.392 72.3452 125.041C72.1157 124.689 72.001 124.274 72.001 123.795V123.781C72.001 123.312 72.1133 122.912 72.3379 122.58C72.5625 122.243 72.8896 121.979 73.3193 121.789C73.749 121.598 74.269 121.486 74.8794 121.452L77.7798 121.276V122.294L75.0332 122.47C74.4326 122.504 73.9932 122.628 73.7148 122.843C73.4414 123.058 73.3047 123.361 73.3047 123.751V123.766C73.3047 124.167 73.4561 124.479 73.7588 124.704C74.0615 124.923 74.4424 125.033 74.9014 125.033C75.3359 125.033 75.7217 124.948 76.0586 124.777C76.3955 124.601 76.6592 124.364 76.8496 124.066C77.0449 123.769 77.1426 123.432 77.1426 123.056V120.595C77.1426 120.106 76.9937 119.735 76.6958 119.481C76.4028 119.223 75.9609 119.093 75.3701 119.093C74.8965 119.093 74.5083 119.179 74.2056 119.35C73.9028 119.516 73.7002 119.752 73.5977 120.06L73.5903 120.082H72.3159L72.3232 120.038C72.3916 119.623 72.5625 119.262 72.8359 118.954C73.1143 118.642 73.4731 118.4 73.9126 118.229C74.3521 118.053 74.8525 117.965 75.4141 117.965C76.0586 117.965 76.603 118.07 77.0474 118.28C77.4966 118.49 77.8359 118.793 78.0654 119.188C78.2998 119.579 78.417 120.048 78.417 120.595V126H77.1426V124.835H77.0254C76.8594 125.114 76.6567 125.351 76.4175 125.546C76.1831 125.741 75.917 125.89 75.6191 125.993C75.3213 126.09 74.9941 126.139 74.6377 126.139ZM80.7461 126V118.104H82.0205V119.291H82.1377C82.3379 118.871 82.626 118.546 83.002 118.317C83.3779 118.083 83.8564 117.965 84.4375 117.965C85.3262 117.965 86.0073 118.219 86.481 118.727C86.9595 119.23 87.1987 119.95 87.1987 120.888V126H85.9243V121.195C85.9243 120.482 85.7729 119.955 85.4702 119.613C85.1724 119.267 84.7085 119.093 84.0786 119.093C83.6587 119.093 83.2949 119.184 82.9873 119.364C82.6797 119.545 82.4404 119.801 82.2695 120.133C82.1035 120.465 82.0205 120.863 82.0205 121.327V126H80.7461ZM92.4209 126.139C91.7568 126.139 91.1758 125.971 90.6777 125.634C90.1797 125.297 89.7939 124.823 89.5205 124.213C89.2471 123.598 89.1104 122.88 89.1104 122.06V122.045C89.1104 121.22 89.2471 120.502 89.5205 119.892C89.7939 119.281 90.1772 118.808 90.6704 118.471C91.1685 118.134 91.752 117.965 92.4209 117.965C92.7822 117.965 93.1216 118.024 93.439 118.141C93.7612 118.253 94.0469 118.412 94.2959 118.617C94.5449 118.822 94.7402 119.066 94.8818 119.35H94.999V114.97H96.2734V126H94.999V124.74H94.8818C94.7207 125.033 94.5181 125.285 94.2739 125.495C94.0298 125.7 93.7515 125.858 93.439 125.971C93.1265 126.083 92.7871 126.139 92.4209 126.139ZM92.7139 125.011C93.1924 125.011 93.605 124.892 93.9517 124.652C94.2983 124.413 94.5645 124.074 94.75 123.634C94.9355 123.19 95.0283 122.665 95.0283 122.06V122.045C95.0283 121.435 94.9355 120.91 94.75 120.47C94.5645 120.031 94.2983 119.691 93.9517 119.452C93.605 119.213 93.1924 119.093 92.7139 119.093C92.2354 119.093 91.8228 119.213 91.4761 119.452C91.1343 119.687 90.8706 120.023 90.6851 120.463C90.5044 120.902 90.4141 121.43 90.4141 122.045V122.06C90.4141 122.67 90.5044 123.197 90.6851 123.642C90.8706 124.081 91.1343 124.42 91.4761 124.66C91.8228 124.894 92.2354 125.011 92.7139 125.011ZM105.744 126.059C104.933 126.059 104.345 125.895 103.979 125.568C103.617 125.241 103.437 124.701 103.437 123.949V119.159H102.191V118.104H103.437V116.061H104.755V118.104H106.483V119.159H104.755V123.627C104.755 124.091 104.843 124.425 105.019 124.63C105.194 124.831 105.487 124.931 105.897 124.931C106.01 124.931 106.105 124.928 106.183 124.923C106.266 124.918 106.366 124.911 106.483 124.901V125.985C106.361 126.005 106.239 126.022 106.117 126.037C105.995 126.051 105.871 126.059 105.744 126.059ZM108.388 126V118.104H109.662V119.276H109.779C109.931 118.861 110.187 118.539 110.548 118.31C110.91 118.08 111.356 117.965 111.889 117.965C112.011 117.965 112.13 117.973 112.248 117.987C112.37 117.997 112.462 118.007 112.526 118.017V119.254C112.394 119.23 112.265 119.213 112.138 119.203C112.016 119.188 111.884 119.181 111.742 119.181C111.337 119.181 110.978 119.262 110.666 119.423C110.353 119.584 110.106 119.809 109.926 120.097C109.75 120.385 109.662 120.722 109.662 121.107V126H108.388ZM116.269 126.139C115.771 126.139 115.321 126.044 114.921 125.854C114.525 125.663 114.21 125.392 113.976 125.041C113.747 124.689 113.632 124.274 113.632 123.795V123.781C113.632 123.312 113.744 122.912 113.969 122.58C114.193 122.243 114.521 121.979 114.95 121.789C115.38 121.598 115.9 121.486 116.51 121.452L119.411 121.276V122.294L116.664 122.47C116.063 122.504 115.624 122.628 115.346 122.843C115.072 123.058 114.936 123.361 114.936 123.751V123.766C114.936 124.167 115.087 124.479 115.39 124.704C115.692 124.923 116.073 125.033 116.532 125.033C116.967 125.033 117.353 124.948 117.689 124.777C118.026 124.601 118.29 124.364 118.48 124.066C118.676 123.769 118.773 123.432 118.773 123.056V120.595C118.773 120.106 118.625 119.735 118.327 119.481C118.034 119.223 117.592 119.093 117.001 119.093C116.527 119.093 116.139 119.179 115.836 119.35C115.534 119.516 115.331 119.752 115.229 120.06L115.221 120.082H113.947L113.954 120.038C114.022 119.623 114.193 119.262 114.467 118.954C114.745 118.642 115.104 118.4 115.543 118.229C115.983 118.053 116.483 117.965 117.045 117.965C117.689 117.965 118.234 118.07 118.678 118.28C119.127 118.49 119.467 118.793 119.696 119.188C119.931 119.579 120.048 120.048 120.048 120.595V126H118.773V124.835H118.656C118.49 125.114 118.288 125.351 118.048 125.546C117.814 125.741 117.548 125.89 117.25 125.993C116.952 126.09 116.625 126.139 116.269 126.139ZM124.318 126L121.396 118.104H122.743L124.904 124.608H125.021L127.182 118.104H128.529L125.607 126H124.318ZM133.144 126.139C132.392 126.139 131.745 125.973 131.203 125.641C130.666 125.309 130.25 124.84 129.958 124.235C129.669 123.625 129.525 122.907 129.525 122.082V122.074C129.525 121.259 129.669 120.543 129.958 119.928C130.25 119.313 130.663 118.832 131.195 118.485C131.728 118.139 132.35 117.965 133.063 117.965C133.781 117.965 134.396 118.131 134.909 118.463C135.426 118.795 135.822 119.259 136.095 119.855C136.374 120.446 136.513 121.134 136.513 121.92V122.418H130.185V121.4H135.861L135.231 122.331V121.825C135.231 121.205 135.138 120.695 134.953 120.294C134.767 119.894 134.511 119.596 134.184 119.401C133.856 119.201 133.48 119.101 133.056 119.101C132.631 119.101 132.25 119.206 131.913 119.416C131.581 119.621 131.317 119.926 131.122 120.331C130.927 120.736 130.829 121.234 130.829 121.825V122.331C130.829 122.892 130.924 123.373 131.115 123.773C131.305 124.169 131.576 124.474 131.928 124.689C132.279 124.899 132.694 125.004 133.173 125.004C133.529 125.004 133.839 124.955 134.103 124.857C134.367 124.76 134.584 124.635 134.755 124.484C134.926 124.333 135.045 124.179 135.114 124.022L135.143 123.957H136.417L136.403 124.015C136.334 124.284 136.212 124.545 136.037 124.799C135.866 125.048 135.644 125.275 135.37 125.48C135.097 125.68 134.772 125.841 134.396 125.963C134.025 126.081 133.607 126.139 133.144 126.139ZM138.563 126V114.97H139.838V126H138.563Z" fill="white"/>
</g>
<g filter="url(#filter1_d_185_5330)">
<rect x="242" y="61.0293" width="157.422" height="179.297" rx="19.5312" transform="rotate(-24 242 61.0293)" fill="#525252"/>
</g>
<rect x="258.938" y="65.459" width="130.469" height="32.4219" rx="7.8125" transform="rotate(-24 258.938 65.459)" fill="#CBD9C9"/>
<rect x="280.661" y="107.527" width="24.2188" height="19.9219" rx="3.90625" transform="rotate(-24 280.661 107.527)" fill="#D9D9D9"/>
<rect x="311.351" y="93.8643" width="24.2188" height="19.9219" rx="3.90625" transform="rotate(-24 311.351 93.8643)" fill="#D9D9D9"/>
<rect x="342.041" y="80.2002" width="24.2188" height="19.9219" rx="3.90625" transform="rotate(-24 342.041 80.2002)" fill="#D9D9D9"/>
<rect x="334.229" y="145.25" width="24.2188" height="19.9219" rx="3.90625" transform="rotate(-24 334.229 145.25)" fill="#D9D9D9"/>
<rect x="292.101" y="133.22" width="24.2188" height="19.9219" rx="3.90625" transform="rotate(-24 292.101 133.22)" fill="#D9D9D9"/>
<rect x="322.79" y="119.556" width="24.2188" height="19.9219" rx="3.90625" transform="rotate(-24 322.79 119.556)" fill="#D9D9D9"/>
<rect x="353.479" y="105.894" width="24.2188" height="19.9219" rx="3.90625" transform="rotate(-24 353.479 105.894)" fill="#D9D9D9"/>
<path d="M295.598 117.244L296.107 107.752L296.069 107.667L291.361 109.763L290.924 108.781L296.748 106.188L297.202 107.206L296.751 116.731L295.598 117.244Z" fill="black"/>
<path d="M355.058 79.9783C355.461 79.7991 355.891 79.6999 356.351 79.6806C356.814 79.6595 357.281 79.7512 357.752 79.9555C358.227 80.1581 358.687 80.5015 359.131 80.9856C359.574 81.4657 359.98 82.1204 360.349 82.9498L360.355 82.962C360.8 83.9622 361.047 84.8777 361.095 85.7087C361.142 86.5356 360.997 87.2503 360.661 87.8529C360.324 88.4514 359.799 88.9091 359.088 89.2259C358.596 89.4449 358.111 89.5537 357.633 89.5522C357.157 89.5448 356.714 89.4373 356.305 89.2297C355.896 89.0221 355.545 88.7255 355.251 88.3397L355.198 88.2686L356.302 87.7771L356.356 87.8334C356.554 88.0375 356.774 88.1928 357.016 88.2993C357.263 88.404 357.524 88.4535 357.799 88.4479C358.078 88.4405 358.366 88.3707 358.663 88.2386C359.195 88.0014 359.56 87.6541 359.755 87.1967C359.949 86.7352 360.013 86.2101 359.946 85.6213C359.878 85.0326 359.719 84.4288 359.468 83.8098C359.447 83.7511 359.424 83.6953 359.401 83.6425C359.375 83.5855 359.351 83.5307 359.327 83.4778L358.413 82.1309C358.241 81.7447 357.996 81.4348 357.678 81.2014C357.364 80.9662 357.016 80.8241 356.633 80.7751C356.253 80.7202 355.876 80.776 355.502 80.9426C355.136 81.1055 354.844 81.3454 354.624 81.6623C354.403 81.9751 354.272 82.3259 354.23 82.7145C354.187 83.0991 354.251 83.4825 354.421 83.8647L354.426 83.8769C354.6 84.2672 354.84 84.5768 355.147 84.8057C355.451 85.0305 355.791 85.1643 356.166 85.207C356.539 85.2456 356.914 85.1807 357.292 85.0124C357.674 84.8422 357.978 84.6048 358.203 84.3001C358.428 83.9953 358.561 83.6557 358.604 83.281C358.649 82.9005 358.586 82.5192 358.416 82.137L358.413 82.1309L358.773 81.9707L359.479 83.5563L359.266 83.6514C359.267 83.9383 359.204 84.2343 359.077 84.5394C358.953 84.8427 358.763 85.1271 358.506 85.3925C358.254 85.6561 357.928 85.8766 357.529 86.054C356.981 86.2984 356.432 86.3893 355.883 86.3269C355.333 86.2644 354.834 86.0678 354.385 85.7368C353.934 85.4018 353.583 84.9538 353.333 84.3927L353.328 84.3805C353.067 83.7951 352.968 83.2158 353.029 82.6428C353.093 82.0639 353.299 81.5412 353.646 81.0746C353.998 80.6062 354.469 80.2408 355.058 79.9783Z" fill="black"/>
<path d="M310.227 141.519L309.415 139.695L305.128 141.604L304.682 140.604C304.745 140.099 304.81 139.587 304.877 139.07C304.942 138.549 305.01 138.03 305.081 137.511C305.154 136.986 305.229 136.465 305.306 135.949C305.383 135.432 305.461 134.923 305.539 134.42C305.622 133.916 305.705 133.426 305.79 132.949L307.382 132.241L310.051 138.235L311.301 137.679L311.739 138.661L310.488 139.217L311.3 141.041L310.227 141.519ZM305.815 140.129L308.987 138.717L306.768 133.734L306.695 133.767C306.628 134.152 306.562 134.552 306.498 134.965C306.432 135.375 306.365 135.794 306.298 136.223C306.235 136.651 306.173 137.08 306.112 137.512C306.051 137.944 305.992 138.374 305.935 138.804C305.88 139.228 305.829 139.645 305.783 140.055L305.815 140.129Z" fill="black"/>
<path d="M340.039 128.494C339.494 128.736 338.96 128.845 338.438 128.819C337.915 128.794 337.441 128.654 337.016 128.4C336.593 128.14 336.255 127.786 336.003 127.339L335.967 127.274L337.022 126.804L337.049 126.851C337.211 127.115 337.427 127.326 337.697 127.483C337.969 127.635 338.271 127.717 338.603 127.73C338.939 127.741 339.278 127.671 339.619 127.519C340.01 127.345 340.315 127.106 340.536 126.804C340.755 126.497 340.88 126.154 340.911 125.774C340.942 125.395 340.87 125.008 340.694 124.614L340.689 124.602C340.515 124.212 340.276 123.904 339.971 123.679C339.668 123.448 339.333 123.313 338.964 123.272C338.595 123.232 338.22 123.297 337.838 123.467C337.545 123.597 337.294 123.762 337.086 123.962C336.882 124.16 336.724 124.391 336.613 124.655C336.568 124.763 336.53 124.875 336.499 124.991C336.472 125.105 336.454 125.228 336.444 125.359L335.492 125.783L333.705 120.521L338.602 118.34L339.039 119.322L335.008 121.117L336.034 124.226L336.132 124.183C336.173 123.925 336.26 123.687 336.391 123.468C336.522 123.249 336.691 123.052 336.896 122.878C337.103 122.698 337.339 122.549 337.603 122.432C338.156 122.185 338.703 122.095 339.244 122.161C339.783 122.223 340.273 122.422 340.714 122.756C341.154 123.087 341.5 123.537 341.754 124.106L341.759 124.118C342.022 124.707 342.122 125.289 342.061 125.862C342.001 126.429 341.799 126.943 341.454 127.403C341.108 127.864 340.637 128.228 340.039 128.494Z" fill="black"/>
<path d="M348.587 155.225L348.25 154.469L349.793 149.924C349.986 149.351 350.129 148.885 350.223 148.526C350.315 148.164 350.355 147.856 350.345 147.602C350.334 147.349 350.272 147.094 350.158 146.838L350.153 146.826C350.015 146.517 349.825 146.27 349.582 146.086C349.339 145.902 349.062 145.794 348.751 145.762C348.439 145.73 348.111 145.791 347.765 145.945C347.416 146.101 347.141 146.31 346.942 146.574C346.741 146.834 346.626 147.127 346.595 147.452C346.563 147.774 346.624 148.107 346.777 148.453L346.777 148.468L345.725 148.929L345.71 148.928C345.483 148.406 345.403 147.888 345.472 147.375C345.539 146.858 345.739 146.389 346.073 145.968C346.405 145.542 346.851 145.205 347.412 144.955C347.925 144.727 348.434 144.629 348.941 144.662C349.445 144.69 349.898 144.837 350.299 145.102C350.703 145.365 351.011 145.735 351.223 146.21L351.229 146.223C351.377 146.556 351.461 146.903 351.481 147.265C351.504 147.625 351.454 148.059 351.33 148.567C351.204 149.071 350.996 149.717 350.708 150.503L349.479 153.863L349.528 153.235L349.753 153.741L349.403 153.678L353.843 151.701L354.283 152.689L348.587 155.225Z" fill="black"/>
<path d="M328.56 102.745C327.938 103.022 327.339 103.159 326.764 103.157C326.188 103.155 325.678 103.027 325.233 102.772C324.79 102.511 324.459 102.135 324.24 101.643L324.235 101.631C324.074 101.269 324.004 100.898 324.025 100.518C324.046 100.139 324.151 99.7779 324.339 99.4357C324.526 99.0894 324.788 98.7904 325.124 98.5384L325.113 98.514C324.566 98.5772 324.073 98.4994 323.635 98.2805C323.197 98.0616 322.874 97.7204 322.668 97.2569L322.662 97.2447C322.465 96.8016 322.413 96.352 322.508 95.896C322.6 95.4359 322.819 95.0094 323.166 94.6165C323.51 94.2195 323.959 93.898 324.512 93.6518C325.069 93.4038 325.608 93.2855 326.129 93.2969C326.653 93.3024 327.117 93.4248 327.521 93.664C327.922 93.8992 328.222 94.2384 328.419 94.6815L328.425 94.6937C328.631 95.1572 328.669 95.6251 328.538 96.0974C328.412 96.5679 328.14 96.9861 327.723 97.3519L327.734 97.3763C328.15 97.2933 328.547 97.2992 328.925 97.3938C329.306 97.4826 329.644 97.6462 329.94 97.8846C330.237 98.123 330.465 98.4231 330.626 98.785L330.632 98.7971C330.851 99.2891 330.909 99.7868 330.807 100.29C330.703 100.79 330.457 101.255 330.069 101.686C329.685 102.115 329.182 102.468 328.56 102.745ZM328.134 101.787C328.54 101.606 328.868 101.378 329.115 101.102C329.365 100.82 329.525 100.518 329.595 100.194C329.663 99.8665 329.627 99.5441 329.486 99.227L329.48 99.2148C329.337 98.8936 329.121 98.6488 328.832 98.4804C328.547 98.3103 328.216 98.2237 327.839 98.2208C327.463 98.2179 327.072 98.3069 326.665 98.488C326.258 98.669 325.93 98.9003 325.681 99.182C325.431 99.4637 325.272 99.7684 325.203 100.096C325.139 100.422 325.178 100.745 325.321 101.067L325.327 101.079C325.468 101.396 325.683 101.639 325.972 101.807C326.26 101.971 326.592 102.055 326.968 102.058C327.343 102.057 327.731 101.966 328.134 101.787ZM326.236 97.5244C326.59 97.3669 326.874 97.1674 327.088 96.926C327.3 96.6805 327.432 96.4145 327.485 96.1279C327.538 95.8414 327.501 95.5558 327.374 95.2712L327.368 95.259C327.242 94.9744 327.054 94.7559 326.806 94.6033C326.558 94.4507 326.273 94.3732 325.95 94.3707C325.625 94.3641 325.286 94.4396 324.933 94.5971C324.579 94.7545 324.296 94.956 324.084 95.2016C323.87 95.443 323.736 95.707 323.684 95.9935C323.631 96.28 323.668 96.5656 323.795 96.8502L323.8 96.8624C323.927 97.147 324.114 97.3656 324.362 97.5181C324.611 97.6707 324.897 97.7503 325.221 97.7569C325.544 97.7594 325.882 97.6819 326.236 97.5244Z" fill="black"/>
</g>
<defs>
<filter id="filter0_d_185_5330" x="12.7837" y="84.8232" width="226.577" height="51.9453" filterUnits="userSpaceOnUse" color-interpolation-filters="sRGB">
<feFlood flood-opacity="0" result="BackgroundImageFix"/>
<feColorMatrix in="SourceAlpha" type="matrix" values="0 0 0 0 0 0 0 0 0 0 0 0 0 0 0 0 0 0 127 0" result="hardAlpha"/>
<feOffset dy="4"/>
<feGaussianBlur stdDeviation="2"/>
<feComposite in2="hardAlpha" operator="out"/>
<feColorMatrix type="matrix" values="0 0 0 0 0 0 0 0 0 0 0 0 0 0 0 0 0 0 0.1 0"/>
<feBlend mode="normal" in2="BackgroundImageFix" result="effect1_dropShadow_185_5330"/>
<feBlend mode="normal" in="SourceGraphic" in2="effect1_dropShadow_185_5330" result="shape"/>
</filter>
<filter id="filter1_d_185_5330" x="240.25" y="-4.74902" width="220.237" height="231.323" filterUnits="userSpaceOnUse" color-interpolation-filters="sRGB">
<feFlood flood-opacity="0" result="BackgroundImageFix"/>
<feColorMatrix in="SourceAlpha" type="matrix" values="0 0 0 0 0 0 0 0 0 0 0 0 0 0 0 0 0 0 127 0" result="hardAlpha"/>
<feMorphology radius="1" operator="dilate" in="SourceAlpha" result="effect1_dropShadow_185_5330"/>
<feOffset/>
<feGaussianBlur stdDeviation="3.5"/>
<feComposite in2="hardAlpha" operator="out"/>
<feColorMatrix type="matrix" values="0 0 0 0 0 0 0 0 0 0 0 0 0 0 0 0 0 0 0.25 0"/>
<feBlend mode="normal" in2="BackgroundImageFix" result="effect1_dropShadow_185_5330"/>
<feBlend mode="normal" in="SourceGraphic" in2="effect1_dropShadow_185_5330" result="shape"/>
</filter>
<clipPath id="clip0_185_5330">
<rect width="360" height="145" rx="22" fill="white"/>
</clipPath>
</defs>
</svg>
