<svg width="94" height="127" viewBox="0 0 94 127" fill="none" xmlns="http://www.w3.org/2000/svg">
<rect x="4.75" y="3" width="85.75" height="119.25" fill="#F6D76C"/>
<g filter="url(#filter0_d_198_5822)">
<rect x="16.6177" y="6.4248" width="69.9245" height="109.585" rx="1.75" fill="white" fill-opacity="0.7" shape-rendering="crispEdges"/>
</g>
<rect x="20.5757" y="3" width="69.9245" height="109.585" rx="1.75" fill="white" fill-opacity="0.34"/>
<rect x="12" y="10.5342" width="69.9245" height="109.585" rx="1.75" fill="white"/>
<rect x="19.2563" y="18.8633" width="1.59842" height="12.5764" fill="#AFD4FF"/>
<rect x="20.3218" y="19.6035" width="2.21937" height="9.59051" transform="rotate(-90 20.3218 19.6035)" fill="#AFD4FF"/>
<path d="M21.3876 18.8634C21.3876 18.5707 21.3251 18.2847 21.208 18.0414C21.0909 17.798 20.9245 17.6084 20.7298 17.4964C20.535 17.3844 20.3208 17.3551 20.1141 17.4122C19.9074 17.4693 19.7175 17.6102 19.5685 17.8171C19.4194 18.0241 19.3179 18.2877 19.2768 18.5747C19.2357 18.8617 19.2568 19.1592 19.3375 19.4296C19.4181 19.6999 19.5547 19.931 19.7299 20.0936C19.9052 20.2562 20.1112 20.343 20.322 20.343L20.322 18.8634H21.3876Z" fill="#AFD4FF"/>
<rect width="1.59842" height="12.5764" transform="matrix(1 0 0 -1 19.2563 57.3271)" fill="#AFD4FF"/>
<rect width="2.21937" height="9.59051" transform="matrix(0 1 1 0 20.3218 56.5869)" fill="#AFD4FF"/>
<path d="M21.3876 57.3271C21.3876 57.6197 21.3251 57.9058 21.208 58.1491C21.0909 58.3924 20.9245 58.582 20.7298 58.694C20.535 58.806 20.3208 58.8353 20.1141 58.7782C19.9074 58.7211 19.7175 58.5802 19.5685 58.3733C19.4194 58.1664 19.3179 57.9027 19.2768 57.6157C19.2357 57.3287 19.2568 57.0312 19.3375 56.7608C19.4181 56.4905 19.5547 56.2594 19.7299 56.0968C19.9052 55.9343 20.1112 55.8475 20.322 55.8475L20.322 57.3271H21.3876Z" fill="#AFD4FF"/>
<rect x="73.5464" y="17.3838" width="2.1084" height="9.53443" transform="rotate(90 73.5464 17.3838)" fill="#AFD4FF"/>
<rect x="72.9854" y="18.7891" width="1.68255" height="12.6504" fill="#AFD4FF"/>
<path d="M73.5463 20.195C73.7681 20.195 73.985 20.1126 74.1695 19.9581C74.3539 19.8037 74.4977 19.5841 74.5826 19.3273C74.6675 19.0705 74.6897 18.7878 74.6464 18.5152C74.6031 18.2425 74.4963 17.9921 74.3394 17.7955C74.1826 17.5989 73.9827 17.465 73.7651 17.4108C73.5475 17.3566 73.322 17.3844 73.117 17.4908C72.9121 17.5972 72.7369 17.7773 72.6136 18.0085C72.4904 18.2396 72.4246 18.5114 72.4246 18.7894L73.5463 18.7894L73.5463 20.195Z" fill="#AFD4FF"/>
<rect x="73.5464" y="17.3838" width="2.1084" height="9.53443" transform="rotate(90 73.5464 17.3838)" fill="#AFD4FF"/>
<rect x="72.9854" y="18.79" width="1.68255" height="12.6504" fill="#AFD4FF"/>
<path d="M73.5463 20.195C73.7681 20.195 73.985 20.1126 74.1695 19.9581C74.3539 19.8037 74.4977 19.5841 74.5826 19.3273C74.6675 19.0705 74.6897 18.7878 74.6464 18.5152C74.6031 18.2425 74.4963 17.9921 74.3394 17.7955C74.1826 17.5989 73.9827 17.465 73.7651 17.4108C73.5475 17.3566 73.322 17.3844 73.117 17.4908C72.9121 17.5972 72.7369 17.7773 72.6136 18.0085C72.4904 18.2396 72.4246 18.5114 72.4246 18.7894L73.5463 18.7894L73.5463 20.195Z" fill="#AFD4FF"/>
<rect x="73.5464" y="17.3838" width="2.1084" height="9.53443" transform="rotate(90 73.5464 17.3838)" fill="#AFD4FF"/>
<rect x="72.9854" y="18.79" width="1.68255" height="12.6504" fill="#AFD4FF"/>
<path d="M73.5463 20.195C73.7681 20.195 73.985 20.1126 74.1695 19.9581C74.3539 19.8037 74.4977 19.5841 74.5826 19.3273C74.6675 19.0705 74.6897 18.7878 74.6464 18.5152C74.6031 18.2425 74.4963 17.9921 74.3394 17.7955C74.1826 17.5989 73.9827 17.465 73.7651 17.4108C73.5475 17.3566 73.322 17.3844 73.117 17.4908C72.9121 17.5972 72.7369 17.7773 72.6136 18.0085C72.4904 18.2396 72.4246 18.5114 72.4246 18.7894L73.5463 18.7894L73.5463 20.195Z" fill="#AFD4FF"/>
<rect x="73.5464" y="17.3838" width="2.1084" height="9.53443" transform="rotate(90 73.5464 17.3838)" fill="#AFD4FF"/>
<rect x="72.9854" y="18.79" width="1.68255" height="12.6504" fill="#AFD4FF"/>
<path d="M73.5463 20.195C73.7681 20.195 73.985 20.1126 74.1695 19.9581C74.3539 19.8037 74.4977 19.5841 74.5826 19.3273C74.6675 19.0705 74.6897 18.7878 74.6464 18.5152C74.6031 18.2425 74.4963 17.9921 74.3394 17.7955C74.1826 17.5989 73.9827 17.465 73.7651 17.4108C73.5475 17.3566 73.322 17.3844 73.117 17.4908C72.9121 17.5972 72.7369 17.7773 72.6136 18.0085C72.4904 18.2396 72.4246 18.5114 72.4246 18.7894L73.5463 18.7894L73.5463 20.195Z" fill="#AFD4FF"/>
<rect width="2.1084" height="9.53443" transform="matrix(0 -1 -1 0 73.5464 58.8066)" fill="#AFD4FF"/>
<rect width="1.68255" height="12.6504" transform="matrix(1 0 0 -1 72.9854 57.4004)" fill="#AFD4FF"/>
<path d="M73.5463 55.9954C73.7681 55.9954 73.985 56.0779 74.1695 56.2323C74.3539 56.3868 74.4977 56.6063 74.5826 56.8631C74.6675 57.12 74.6897 57.4026 74.6464 57.6753C74.6031 57.9479 74.4963 58.1984 74.3394 58.3949C74.1826 58.5915 73.9827 58.7254 73.7651 58.7796C73.5475 58.8339 73.322 58.806 73.117 58.6996C72.9121 58.5933 72.7369 58.4131 72.6136 58.1819C72.4904 57.9508 72.4246 57.679 72.4246 57.401L73.5463 57.401V55.9954Z" fill="#AFD4FF"/>
<rect width="2.1084" height="9.53443" transform="matrix(0 -1 -1 0 73.5469 58.8066)" fill="#AFD4FF"/>
<rect width="1.68255" height="12.6504" transform="matrix(1 0 0 -1 72.9854 57.4004)" fill="#AFD4FF"/>
<path d="M73.5468 55.9954C73.7686 55.9954 73.9855 56.0779 74.1699 56.2323C74.3544 56.3868 74.4982 56.6063 74.5831 56.8631C74.668 57.12 74.6902 57.4026 74.6469 57.6753C74.6036 57.9479 74.4968 58.1984 74.3399 58.3949C74.183 58.5915 73.9832 58.7254 73.7656 58.7796C73.548 58.8339 73.3225 58.806 73.1175 58.6996C72.9125 58.5933 72.7374 58.4131 72.6141 58.1819C72.4908 57.9508 72.4251 57.679 72.4251 57.401L73.5468 57.401V55.9954Z" fill="#AFD4FF"/>
<rect width="2.1084" height="9.53443" transform="matrix(0 -1 -1 0 73.5469 58.8066)" fill="#AFD4FF"/>
<rect width="1.68255" height="12.6504" transform="matrix(1 0 0 -1 72.9858 57.4004)" fill="#AFD4FF"/>
<path d="M73.5468 55.9954C73.7686 55.9954 73.9855 56.0779 74.1699 56.2323C74.3544 56.3868 74.4982 56.6063 74.5831 56.8631C74.668 57.12 74.6902 57.4026 74.6469 57.6753C74.6036 57.9479 74.4968 58.1984 74.3399 58.3949C74.183 58.5915 73.9832 58.7254 73.7656 58.7796C73.548 58.8339 73.3225 58.806 73.1175 58.6996C72.9125 58.5933 72.7374 58.4131 72.6141 58.1819C72.4908 57.9508 72.4251 57.679 72.4251 57.401L73.5468 57.401V55.9954Z" fill="#AFD4FF"/>
<ellipse cx="27.0278" cy="28.9577" rx="1.68939" ry="1.86684" fill="#D9D9D9"/>
<ellipse cx="27.0278" cy="37.9186" rx="1.68939" ry="1.86684" fill="#D9D9D9"/>
<ellipse cx="27.0278" cy="46.8795" rx="1.68939" ry="1.86684" fill="#D9D9D9"/>
<path d="M34.1226 47.2529H64.8694" stroke="#FFE3BA" stroke-width="1.25" stroke-linecap="round" stroke-linejoin="round"/>
<path d="M34.1226 37.5449H64.8694" stroke="#FFE3BA" stroke-width="1.25" stroke-linecap="round" stroke-linejoin="round"/>
<path d="M34.1226 28.584H64.8694" stroke="#FFE3BA" stroke-width="1.25" stroke-linecap="round" stroke-linejoin="round"/>
<g filter="url(#filter1_d_198_5822)">
<rect x="4" y="3" width="64.75" height="119.25" fill="#F6D76C"/>
<rect x="4" y="53.3906" width="85.75" height="68.8589" fill="#F6D76C"/>
<path d="M67.5 34.1318L89.75 53.3912H67.5L67.5 34.1318Z" fill="#F6D76C"/>
</g>
<ellipse cx="33.5" cy="85.5" rx="24.5" ry="24.5" fill="white"/>
<rect width="8.10861" height="16.7638" transform="matrix(0.778736 -0.627351 0.658074 0.752953 14.8965 88.1387)" fill="#2C8867"/>
<rect width="7.31952" height="33.1716" transform="matrix(0.658074 0.752953 -0.778736 0.627351 47.5708 73.9492)" fill="#2C8867"/>
<defs>
<filter id="filter0_d_198_5822" x="15.6177" y="6.4248" width="71.9243" height="111.585" filterUnits="userSpaceOnUse" color-interpolation-filters="sRGB">
<feFlood flood-opacity="0" result="BackgroundImageFix"/>
<feColorMatrix in="SourceAlpha" type="matrix" values="0 0 0 0 0 0 0 0 0 0 0 0 0 0 0 0 0 0 127 0" result="hardAlpha"/>
<feOffset dy="1"/>
<feGaussianBlur stdDeviation="0.5"/>
<feComposite in2="hardAlpha" operator="out"/>
<feColorMatrix type="matrix" values="0 0 0 0 0 0 0 0 0 0 0 0 0 0 0 0 0 0 0.25 0"/>
<feBlend mode="normal" in2="BackgroundImageFix" result="effect1_dropShadow_198_5822"/>
<feBlend mode="normal" in="SourceGraphic" in2="effect1_dropShadow_198_5822" result="shape"/>
</filter>
<filter id="filter1_d_198_5822" x="0.250001" y="0.250001" width="93.25" height="126.75" filterUnits="userSpaceOnUse" color-interpolation-filters="sRGB">
<feFlood flood-opacity="0" result="BackgroundImageFix"/>
<feColorMatrix in="SourceAlpha" type="matrix" values="0 0 0 0 0 0 0 0 0 0 0 0 0 0 0 0 0 0 127 0" result="hardAlpha"/>
<feOffset dy="1"/>
<feGaussianBlur stdDeviation="1.875"/>
<feComposite in2="hardAlpha" operator="out"/>
<feColorMatrix type="matrix" values="0 0 0 0 0 0 0 0 0 0 0 0 0 0 0 0 0 0 0.7 0"/>
<feBlend mode="normal" in2="BackgroundImageFix" result="effect1_dropShadow_198_5822"/>
<feBlend mode="normal" in="SourceGraphic" in2="effect1_dropShadow_198_5822" result="shape"/>
</filter>
</defs>
</svg>
